/* XPM */
static char *f3e9672d80f34704923e76c8059936a0MNartdNsW0UW3Wur[] = {
/* columns rows colors chars-per-pixel */
"64 64 200 2 ",
"   c black",
".  c #010101",
"X  c #020202",
"o  c gray1",
"O  c #040404",
"+  c gray2",
"@  c #060606",
"#  c #070707",
"$  c gray3",
"%  c #090909",
"&  c gray4",
"*  c #0B0B0B",
"=  c #0C0C0C",
"-  c gray5",
";  c #0E0E0E",
":  c gray6",
">  c #101010",
",  c #111111",
"<  c #131313",
"1  c #161616",
"2  c gray9",
"3  c #181818",
"4  c #191919",
"5  c gray10",
"6  c gray11",
"7  c #1D1D1D",
"8  c #1E1E1E",
"9  c #202020",
"0  c gray13",
"q  c #232323",
"w  c gray15",
"e  c #272727",
"r  c #282828",
"t  c #2A2A2A",
"y  c gray17",
"u  c #2D2D2D",
"i  c gray18",
"p  c #2F2F2F",
"a  c gray19",
"s  c #313131",
"d  c gray20",
"f  c #343434",
"g  c #353535",
"h  c gray21",
"j  c #373737",
"k  c #393939",
"l  c gray23",
"z  c #3C3C3C",
"x  c gray24",
"c  c #3E3E3E",
"v  c #3F3F3F",
"b  c gray25",
"n  c #414141",
"m  c gray27",
"M  c #464646",
"N  c gray28",
"B  c #484848",
"V  c #494949",
"C  c gray29",
"Z  c #4B4B4B",
"A  c #4C4C4C",
"S  c gray30",
"D  c #4E4E4E",
"F  c #505050",
"G  c #515151",
"H  c gray32",
"J  c gray33",
"K  c #555555",
"L  c #565656",
"P  c gray34",
"I  c #585858",
"U  c #5A5A5A",
"Y  c gray37",
"T  c #5F5F5F",
"R  c #606060",
"E  c gray38",
"W  c #626262",
"Q  c gray39",
"!  c #656565",
"~  c gray40",
"^  c #676767",
"/  c DimGray",
"(  c #6A6A6A",
")  c gray42",
"_  c #6D6D6D",
"`  c gray43",
"'  c #6F6F6F",
"]  c #717171",
"[  c #727272",
"{  c gray45",
"}  c #747474",
"|  c gray46",
" . c #767676",
".. c #777777",
"X. c gray47",
"o. c #797979",
"O. c #7B7B7B",
"+. c #7C7C7C",
"@. c gray49",
"#. c #808080",
"$. c gray51",
"%. c #838383",
"&. c gray52",
"*. c #888888",
"=. c #898989",
"-. c gray54",
";. c #8B8B8B",
":. c gray55",
">. c #8D8D8D",
",. c #8E8E8E",
"<. c #909090",
"1. c gray57",
"2. c #929292",
"3. c #939393",
"4. c gray58",
"5. c #959595",
"6. c #989898",
"7. c gray60",
"8. c #9A9A9A",
"9. c #9B9B9B",
"0. c gray61",
"q. c #9F9F9F",
"w. c #A0A0A0",
"e. c #A2A2A2",
"r. c gray64",
"t. c #A4A4A4",
"y. c #A5A5A5",
"u. c gray65",
"i. c #A7A7A7",
"p. c #AAAAAA",
"a. c gray67",
"s. c #AEAEAE",
"d. c gray70",
"f. c #B4B4B4",
"g. c #B6B6B6",
"h. c #B7B7B7",
"j. c gray72",
"k. c #B9B9B9",
"l. c gray73",
"z. c #BBBBBB",
"x. c #BCBCBC",
"c. c gray74",
"v. c gray",
"b. c gray75",
"n. c #C0C0C0",
"m. c #C1C1C1",
"M. c gray76",
"N. c #C3C3C3",
"B. c gray77",
"V. c #C5C5C5",
"C. c #C6C6C6",
"Z. c #C8C8C8",
"A. c #CACACA",
"S. c #CBCBCB",
"D. c gray80",
"F. c #CECECE",
"G. c gray81",
"H. c #D0D0D0",
"J. c #D2D2D2",
"K. c LightGray",
"L. c gray84",
"P. c #D7D7D7",
"I. c gray85",
"U. c #DADADA",
"Y. c gray86",
"T. c gainsboro",
"R. c #DDDDDD",
"E. c gray87",
"W. c #DFDFDF",
"Q. c gray88",
"!. c #E1E1E1",
"~. c #E2E2E2",
"^. c gray89",
"/. c #E4E4E4",
"(. c gray90",
"). c #E6E6E6",
"_. c gray91",
"`. c #E9E9E9",
"'. c #EAEAEA",
"]. c gray92",
"[. c #ECECEC",
"{. c gray93",
"}. c #EEEEEE",
"|. c #EFEFEF",
" X c gray94",
".X c #F1F1F1",
"XX c gray95",
"oX c #F3F3F3",
"OX c #F4F4F4",
"+X c gray96",
"@X c #F6F6F6",
"#X c gray97",
"$X c #F8F8F8",
"%X c #F9F9F9",
"&X c gray98",
"*X c #FBFBFB",
"=X c gray99",
"-X c #FDFDFD",
";X c #FEFEFE",
":X c white",
/* pixels */
":X:X:X:X:X:X:X:X:X:X:X:X:X:X:X:X:X:X:X:X:X:X:X:X:X:X:X:X:X:X:X:X:X:X:X:X:X:X:X:X:X:X:X:X:X:X:X:X:X:X:X:X:X:X:X:X:X:X:X:X:X:X:X:X",
":X:X:X:X:X:X:X:X:X:X:X:X:X:X:X:X:X:X:X:X:X:X:X:X:X:X:X:X:X:X:X:X:X:X:X:X:X:X:X:X:X:X:X:X:X:X:X:X:X:X:X:X:X:X:X:X:X:X:X:X:X:X:X:X",
":X:X:X:X:X:X:X:X:X:X:X:X:X:X:X:X:X:X:X:X:X:X:X:X:X:X:X:X:X:X:X:X:X:X:X:X:X:X:X:X:X:X:X:X:X:X:X:X:X:X:X:X:X:X:X:X:X:X:X:X:X:X:X:X",
":X:X:X:X:X:X:X:X:X:X:X:X:X:X:X:X:X:X:X:X:X:X:X:X:X:X:X:X:X:X:X:X:X:X:X:X:X:X:X:X:X:X:X:X:X:X:X:X:X:X:X:X:X:X:X:X:X:X:X:X:X:X:X:X",
":X:X:X:X:X:X:X:X:X:X:X:X:X:X:X:X:X:X:X:X:X:X:X:X:X:X:X:X:X:X:X:X:X:X:X:X:X:X:X:X:X:X:X:X:X:X:X:X:X:X:X:X:X:X:X:X:X:X:X:X:X:X:X:X",
":X:X:X:X:X:X:X:X:X:X:X:X:X:X:X:X:X:X:X:X:X:X:X:X:X:X:X:X:X:X:X:X:X:X:X:X:X:X:X:X:X:X:X:X:X:X:X:X:X:X:X:X:X:X:X:X:X:X:X:X:X:X:X:X",
":X:X:X:X:X:X:X:X:X:X:X:X:X:X:X:X:X:X:X:X:X:X:X:X:X:X:X:X:X:X:X:X:X:X:X:X:X:X:X:X:X:X:X:X:X:X:X:X:X:X:X:X:X:X:X:X:X:X:X:X:X:X:X:X",
":X:X:X:X:X:X:X:X:X:X:X:X:X:X:X:X:X:X:X:X:X:X:X:X:X:X:X:X:X:X:X:X:X:X:X:X:X:X:X:X:X:X:X:X:X:X:X:X:X:X:X:X:X:X:X:X:X:X:X:X:X:X:X:X",
":X:X:X:X:X:X:X:X:X:X:X:X:X:X:X:X:X:X:X:X:X:X:X:X:X:X:X:X:X&X:X:X&X:X&X:X:X:X:X:X:X:X:X:X:X:X:X:X:X:X:X:X:X:X:X:X:X:X:X:X:X:X:X:X",
":X:X:X:X:X:X:X:X:X:X:X:X:X:X:X:X:X:X:X:X:X:X:X:X&X:X:X:X:X:X:X:X:X:X:X:X:X:X:X:X:X:X:X:X:X:X:X:X:X:X:X:X:X:X:X:X:X:X:X:X:X:X:X:X",
":X:X:X:X:X:X:X:X:X:X:X:X:X:X:X:X:X:X:X:X:X:X:X:X:X:X:X:X:X:X:X:X:X:X:X:X:X:X:X:X:X:X:X:X:X:X:X:X:X:X:X:X:X:X:X:X:X:X:X:X:X:X:X:X",
":X:X:X:X:X:X:X:X:X:X:X:X:X:X:X:X:X:X:X:X:X:X:X:XOX:X:X:X:X].:X:X:X:X:X:X:X:X:X:X:X:X:X:X:X:X:X:X:X:X:X:X:X:X:X:X:X:X:X:X:X:X:X:X",
":X:X:X:X:X:X:X:X:X:X:X:X:X:X:X:X:X&X:X:X:X:X:X:X:X:X:X:X&X9.s.T..X:X:X:X:X:X:X:X:X:X:X:X:X:X:X:X:X:X:X:X:X:X:X:X:X:X:X:X:X:X:X:X",
":X:X:X:X:X:X:X:X:X:X:X:X:X:X:X:X&X:X:X:X:X:X:X:X:X:X:X:XT.f 7 c ] J.:X:X:X:X:X:X:X:X:X:X:X:X:X:X:X:X:X:X:X:X:X:X:X:X:X:X:X:X:X:X",
":X:X:X:X:X:X:X:X:X:X:X:X:X:X:X:X&X:X].OX:X:X:X:X:X:X:X:X(.0       :.:X:X:X:X:X:X:X:X:X:X:X:X:X:X:X:X:X:X:X:X:X:X:X:X:X:X:X:X:X:X",
":X:X:X:X:X:X:X:X:X:X:X:X:X:X:X:X:X].+.+.n.^.:X:X:X:X:X:X.Xf &     X..X:X:X:X:X:X:X:X:X:X:X:X:X:X:X:X:X:X:X:X:X:X:X:X:X:X:X:X:X:X",
":X:X:X:X:X:X:X:X:X:X:X:X:X:X:X:X:XOX4.  ; a U B.:X:X:X:X(.c   +   A :X:X:X:X:X:X:X:X:X:X:X:X:X:X:X:X:X:X:X:X:X:X:X:X:X:X:X:X:X:X",
":X:X:X:X:X:X:X:X:X:X:X:X:X:X:X:X:X:Xj.;       B .X:X:X:X|.A       A :X:X:X:X:X:X:X:X:X:X:X:X:X:X:X:X:X:X:X:X:X:X:X:X:X:X:X:X:X:X",
":X:X:X:X:X:X:X:X:X:X:X:X:X:X:X:X:X:XB.1       7 ^.:X:X:X:XE       c |.:X:X:X:X:X:X:X:X:X:X:X:X:X:X:X:X:X:X:X:X:X:X:X:X:X:X:X:X:X",
":X:X:X:X:X:X:X:X:X:X:X:X:X:X:X:X:X:XB.1   & + ; Z.:X:X:X:X] &   & y ^.:X:X:X:X:X:X:X:X:X:X:X:X:X:X:X:X:X:X:X:X:X:X:X:X:X:X:X:X:X",
":X:X:X:X:X:X:X:X:X:X:X:X:X:X:X:X:X:XT.f         j.:X:X:X:X] &     w .X:XB.u.Z.T.^.^.(.:X:X:X:X:X:X:X:X:X:X:X:X:X:X:X:X:X:X:X:X:X",
":X:X:X:X:X:X:X:X:X:X:X:X:X:X:X:X:X:X.XT ;   + & s.:X:X:X:X_       n T.a.f   5 0 0 5 k r.OX:X:X:X:X:X:X:X:X:X:X:X:X:X:X:X:X:X:X:X",
":X:X:X:X:X:X:X:X:X:X:X:X:X:X:X:X:Xg.q.n +       u.:X:X:X:X)     + 0 ] u       + &   ; 4.&X:X:X:X:X:X:X:X:X:X:X:X:X:X:X:X:X:X:X:X",
":X:X:X:X:X:X:X:X:X:X:X:X:X:X:X:X4.5 +     + +   q.:X:X:X:X)   +     5   + &         k D.:X&X&X:X:X:X:X:X:X:X:X:X:X:X:X:X:X:X:X:X",
":X:X:X:X:X:X:X:X:X:X:X:X:X:XT.9.& &   &   +   0 ].:X:X:X:X]       5         + 7 A 1.^.:X:X:X:X:X:X:X:X:X:X:X:X:X:X:X:X:X:X:X:X:X",
":X:X:X:X:X:X:X:X:X:X:XOXn.;.N ; ;     &       P .X:X:X:X:X .    +  .] B B ] r.D.&X:X:X:X:X:X:X:X:X:X:X:X:X:X:X:X:X:X:X:X:X:X:X:X",
":X:X:X:X:X:X:X:X:XT.1.F u 1         7 T f   & ;.:X:X:X:X:X]   + u ^.:X].].:X:X:X:X:X:X:X:X:X:X:X:X:X:X:X:X:X:X:X:X:X:X:X:X:X:X:X",
":X:X:X:X:X:X:X:X:Xb.A         & 7 U u.^. .  > b.:X:X:X:X:X]     E &X:X:X:X:X:X:X:X:X:X:X:X:X:X:X:X:X:X:X:X:X:X:X:X:X:X:X:X:X:X:X",
":X:X:X:X:X:X:X:X:X:XZ.;.^ P U _ d.U.:X:X .  5 T.:X:X:X:X&X]     1.:X:X&X:X:X:X:X:X:X:X&X:X:X:X:X:X:X:X:X:X:X:X:X:X:X:X:X:X:X:X:X",
":X:X:X:X:X:X:X:X:X:X:X:X&XOX&X:X:X:X:X:XE   u ^.:X:X:X:X:X]   + 4.:X:X:X:X:X:X:X:X:X:X:X:X:X:X:X:X:X:X:X:X:X:X:X:X:X:X:X:X:X:X:X",
":X:X:X:X:X:X:X:X:X:X:X:X:X:X:X:X:X:X:X.XP + N |.:X:X:X:X:X]     q.:X:X:X:X:X:X:X:X:X:X:X:X:X:X:X:X:X:X:X:X:X:X:X:X:X:X:X:X:X:X:X",
":X:X:X:X:X:X:X:X:X:X:X:X:X:X:X:X:X:X:X].c   A :X:X:X&X:X:X]     1.:X:X:X:X:X:X:X:X:X:X:X:X:X:X:X:X:X:X:X:X:X:X:X:X:X:X:X:X:X:X:X",
":X:X:X:X:X:X:X:X:X:X:X:X:X:X&X:X:X:X:XT.7   ) OXD.:X:X:XOXX.    ) :X:X:X:X:X:X:X:X:X:X:X:X:X:X:X:X:X:X:X:X:X:X:X:X:X:X:X:X:X:X&X",
":X:X:X:X:X:X:X:X:XOX:X:X:X:X:X:X:X:X:Xj.> & B 9.U.:X:X:X:X+.    N ].:X:X:X:X:X:X:X:X:X:X:X:X:X:X:X:X:X:X:X:X:X:X:X:X:X:X:X:X:X:X",
":X:X:X:X:X:X:X:X:X&X:X:XOX:X:X:X:X:X:X4.    y $.].:X:X:X:X;.  + 7 D.:X:X:X:X:X&X:X:X:X:X:X:X:X:X&X:X:X:X:X:X:X:X:X:X:X:X:X:X:X:X",
":X:X:X:X:X:X:X:X:X:X:X:X:X:X:X:X:X:X:XX.    F U.:X:X:X:X:X9.    & d.:X:X:X:X:X:X:X:X:X:X:X:XOXb.:X:X:XOX&X:X:X:X:X:X:X&X:X:X:X:X",
":X:X:X:X:X:X:X:X&X:X:X:X:X:X&X:X:X:X.XN   f j.:X:X:X:X:X:Xd.>     :.:X:X&X:X:X:X:X:X:X:X:X:XU.B B.:X:X:X:X:X:X&X:X:X:X:X:X:X:X:X",
":X:X:X:X:X:X:X:X:X:X:X:X:X&X:X:X:XT.$.  ; 4.:X:X:X:X:X:X:XJ.u     ^ ].:X:X:X:X:X:X:X:X:X:X:XJ.> F u.K.^.&X:X:X:X:X:X:X:X:X&X:X:X",
":X:X:X:X:X:X:X:X:X:X:X:X:X:X:XOXj.T ;   ^ (.:X:X:X:X:X:X:X.XF     u 9.^.:X:X:X:X:X:X:X:X:X:Xb.5   5 0 w B _ u.].OX:X:X:X:X:X:X:X",
":X:X:X:X:X:X:X:X:X:X:X:X&X:XOXa.a     c Z.:X:X:X:X:X:X:X:X:X .& &   1 U :.b.n.K.J.n.n.J.j.4.^     +     &   & A .X&X:X:X:X&X:X:X",
":X:X:X:X:X:X:X:X:X:X:X:X:X^. .; &   u b.:X:X:X:X:X:X:X:X:X:XU.a +     +     & > 1 ; & & ; +           > +   w u.:X:X:X:X:X:X:X:X",
":X:X:X:X:X:X:X:X:X:X:X:Xj.A &     a r.OX:X:X:X:X:X:X:X:X:X:X:Xb.w +     + & &   + + + +         + +       5 +.|.:X:X:X:X:X:X:X:X",
":X:X:X:X:X:X:X:X:XB.d.:.k       & ;.:X:X:X:X:X:X:X:X:X:X&X&X:X:Xq.T 0                         &   + & + a $.U.:X:X:X:X:X:X:X:X:X",
":X:X:X:X:X:X:X:X.XE + +     + ; &.T.:X:X&X:X:X&X:X:X:X:X:X:X:X:X:X|.j.;.E A B n a c B A A A P E +.4.r.u.n..X:X:X:X:X:X:X:X:X:X:X",
":X:X:X:X:X:X:X:XOXF   + +   7 _ .X:X:X&X:X:X:X:X:X:X:X:X:X:X:X:X:X:X:X:X&XOX:XOXT.].OXOXOX&X:X:X:X:X:X:X:X:X:X&X:X:X:X:X:X:X:X:X",
":X:X:X:X:X:X:X:X:Xu.a     y 1..X:X:X:X:X:X&XOX:X:X:X:X:X:X:X:X:X:X:X:X:X:X:X:XOX:X:X:X:X:X:X:X:X:X:X:X:X:X:X:X:X:X:X:X:X:X:X:X:X",
":X:X:X:X:X:X:X:X:X.X) + B n.:X:X&X&X:X:X:X:X:X:X:X:X:X:X:X:X:X:X:X:X:X:X:X:X:X&X:X:X:X:X:X:X:X&X:X:X:X:X:X:X:X:X:X:X:X:X:X:X:X:X",
":X:X:X:X:X:X:X:X:X:XD.9.^.:X:X:X:X:X:X&X:X:X:X:X:X:X:X:X:X:X:X:X:X:X:X:X:X:X:X:X:X:X:X:X:X:X:X:X:X:X:X:X:X:X:X:X:X:X:X:X:X:X:X:X",
":X:X:X:X:X:X:X:X:X:X:X:X:X:X:X:X:X:X:X:X:X:X:X:X:X:X:X:X:X:X:X:X:X:X:X:X:X:X:X:X:X:X:X:X:X:X:X:X:X:X:X:X:X:X:X:X:X:X:X:X:X:X:X:X",
":X:X:X:X:X:X:X:X:X:X:X:X:X:X:X:X:X:X:X:X:X:X:X:X:X:X:X:X:X:X:X:X:X:X:X:X:X:X:X:X:X:X:X:X:X:X:X:X:X:X:X:X:X:X:X:X:X:X:X:X:X:X:X:X",
":X:X:X:X:X:X:X:X:X:X:X:X:X:X:X:X:X:X:X:X:X:X:X:X:X:X:X:X:X:X:X:X:X:X:X:X:X:X:X:X:X:X:X:X:X:X:X:X:X:X:X:X:X:X:X:X:X:X:X:X:X:X:X:X",
":X:X:X:X:X:X:X:X:X:X:X:X:X:X:X:X:X:X:X:X:X:X:X:X:X:X:X:X:X:X:X:X:X:X:X:X:X:X:X:X:X:X:X:X:X:X:X:X:X:X:X:X:X:X:X:X:X:X:X:X:X:X:X:X",
":X:X:X:X:X:X:X:X:X:X:X:X:X:X:X:X:X:X:X:X:X:X:X:X:X:X:X:X:X:X:X:X:X:X:X:X:X:X:X:X:X:X:X:X:X:X:X:X:X:X:X:X:X:X:X:X:X:X:X:X:X:X:X:X",
":X:X:X:X:X:X:X:X:X:X:X:X:X:X:X:X:X:X:X:X:X:X:X:X:X:X:X:X:X:X:X:X:X:X:X:X:X:X:X:X:X:X:X:X:X:X:X:X:X:X:X:X:X:X:X:X:X:X:X:X:X:X:X:X",
":X:X:X:X:X:X:X:X:X:X:X:X:X:X:X:X:X:X:X:X:X:X:X:X:X:X:X:X:X:X:X:X:X:X:X:X:X:X:X:X:X:X:X:X:X:X:X:X:X:X:X:X:X:X:X:X:X:X:X:X:X:X:X:X",
":X:X:X:X:X:X:X:X:X:X:X:X:X:X:X:X:X:X:X:X:X:X:X:X:X:X:X:X:X:X:X:X:X:X:X:X:X:X:X:X:X:X:X:X:X:X:X:X:X:X:X:X:X:X:X:X:X:X:X:X:X:X:X:X",
":X:X:X:X:X:X:X:X:X:X:X:X:X:X:X:X:X:X:X:X:X:X:X:X:X:X:X:X:X:X:X:X:X:X:X:X:X:X:X:X:X:X:X:X:X:X:X:X:X:X:X:X:X:X:X:X:X:X:X:X:X:X:X:X",
":X:X:X:X:X:X:X:X:X:X:X:X:X:X:X:X:X:X:X:X:X:X:X:X:X:X:X:X:X:X:X:X:X:X:X:X:X:X:X:X:X:X:X:X:X:X:X:X:X:X:X:X:X:X:X:X:X:X:X:X:X:X:X:X",
":X:X:X:X:X:X:X:X:X:X:X:X:X:X:X:X:X:X:X:X:X:X:X:X:X:X:X:X:X:X:X:X:X:X:X:X:X:X:X:X:X:X:X:X:X:X:X:X:X:X:X:X:X:X:X:X:X:X:X:X:X:X:X:X",
":X:X:X:X:X:X:X:X:X:X:X:X:X:X:X:X:X:X:X:X:X:X:X:X:X:X:X:X:X:X:X:X:X:X:X:X:X:X:X:X:X:X:X:X:X:X:X:X:X:X:X:X:X:X:X:X:X:X:X:X:X:X:X:X",
":X:X:X:X:X:X:X:X:X:X:X:X:X:X:X:X:X:X:X:X:X:X:X:X:X:X:X:X:X:X:X:X:X:X:X:X:X:X:X:X:X:X:X:X:X:X:X:X:X:X:X:X:X:X:X:X:X:X:X:X:X:X:X:X",
":X:X:X:X:X:X:X:X:X:X:X:X:X:X:X:X:X:X:X:X:X:X:X:X:X:X:X:X:X:X:X:X:X:X:X:X:X:X:X:X:X:X:X:X:X:X:X:X:X:X:X:X:X:X:X:X:X:X:X:X:X:X:X:X",
":X:X:X:X:X:X:X:X:X:X:X:X:X:X:X:X:X:X:X:X:X:X:X:X:X:X:X:X:X:X:X:X:X:X:X:X:X:X:X:X:X:X:X:X:X:X:X:X:X:X:X:X:X:X:X:X:X:X:X:X:X:X:X:X",
":X:X:X:X:X:X:X:X:X:X:X:X:X:X:X:X:X:X:X:X:X:X:X:X:X:X:X:X:X:X:X:X:X:X:X:X:X:X:X:X:X:X:X:X:X:X:X:X:X:X:X:X:X:X:X:X:X:X:X:X:X:X:X:X"
};
