/* XPM */
static char *_d6dde745db049c5b4da6793fa30b2235bp2pWG1vtyLVp8R[] = {
/* columns rows colors chars-per-pixel */
"64 64 216 2 ",
"   c black",
".  c #010101",
"X  c #020202",
"o  c gray1",
"O  c #040404",
"+  c gray2",
"@  c #060606",
"#  c #070707",
"$  c gray3",
"%  c #090909",
"&  c gray4",
"*  c #0B0B0B",
"=  c #0C0C0C",
"-  c gray5",
";  c #0E0E0E",
":  c gray6",
">  c #101010",
",  c #111111",
"<  c gray7",
"1  c #131313",
"2  c gray8",
"3  c #151515",
"4  c #161616",
"5  c gray9",
"6  c #181818",
"7  c #191919",
"8  c gray10",
"9  c #1B1B1B",
"0  c gray11",
"q  c #1D1D1D",
"w  c #1E1E1E",
"e  c gray12",
"r  c #202020",
"t  c gray13",
"y  c gray14",
"u  c #252525",
"i  c gray15",
"p  c #272727",
"a  c #282828",
"s  c gray16",
"d  c #2A2A2A",
"f  c #2C2C2C",
"g  c #2D2D2D",
"h  c gray18",
"j  c #2F2F2F",
"k  c gray19",
"l  c #313131",
"z  c #323232",
"x  c gray20",
"c  c #343434",
"v  c #353535",
"b  c #393939",
"n  c gray23",
"m  c #3C3C3C",
"M  c gray24",
"N  c #3E3E3E",
"B  c #3F3F3F",
"V  c gray25",
"C  c #414141",
"Z  c gray26",
"A  c #434343",
"S  c #444444",
"D  c gray27",
"F  c gray28",
"G  c gray29",
"H  c #4B4B4B",
"J  c #4C4C4C",
"K  c gray30",
"L  c gray31",
"P  c #505050",
"I  c #515151",
"U  c gray32",
"Y  c #535353",
"T  c gray33",
"R  c #555555",
"E  c #565656",
"W  c gray34",
"Q  c #585858",
"!  c gray35",
"~  c #5A5A5A",
"^  c gray36",
"/  c gray37",
"(  c #5F5F5F",
")  c #606060",
"_  c gray38",
"`  c #626262",
"'  c gray39",
"]  c #646464",
"[  c #656565",
"{  c gray40",
"}  c #686868",
"|  c DimGray",
" . c #6A6A6A",
".. c gray42",
"X. c #6C6C6C",
"o. c #6D6D6D",
"O. c gray43",
"+. c #6F6F6F",
"@. c gray44",
"#. c #747474",
"$. c gray46",
"%. c #767676",
"&. c #777777",
"*. c gray47",
"=. c gray48",
"-. c #7C7C7C",
";. c #7E7E7E",
":. c gray50",
">. c #808080",
",. c #818181",
"<. c gray51",
"1. c #838383",
"2. c #848484",
"3. c gray52",
"4. c #888888",
"5. c gray54",
"6. c #8B8B8B",
"7. c gray55",
"8. c gray56",
"9. c #909090",
"0. c gray57",
"q. c #929292",
"w. c #939393",
"e. c gray58",
"r. c #959595",
"t. c gray59",
"y. c #979797",
"u. c gray60",
"i. c #9A9A9A",
"p. c #9B9B9B",
"a. c gray61",
"s. c #9D9D9D",
"d. c gray62",
"f. c #9F9F9F",
"g. c #A0A0A0",
"h. c gray63",
"j. c #A2A2A2",
"k. c gray64",
"l. c #A4A4A4",
"z. c gray65",
"x. c #A7A7A7",
"c. c gray66",
"v. c #ACACAC",
"b. c gray68",
"n. c #AFAFAF",
"m. c gray69",
"M. c #B1B1B1",
"N. c gray70",
"B. c gray71",
"V. c #B6B6B6",
"C. c #B7B7B7",
"Z. c gray72",
"A. c #B9B9B9",
"S. c gray73",
"D. c #BCBCBC",
"F. c gray74",
"G. c gray",
"H. c #C0C0C0",
"J. c gray76",
"K. c gray77",
"L. c #C5C5C5",
"P. c #C6C6C6",
"I. c #C8C8C8",
"U. c gray79",
"Y. c #CBCBCB",
"T. c gray80",
"R. c #CDCDCD",
"E. c #CECECE",
"W. c gray81",
"Q. c #D0D0D0",
"!. c gray82",
"~. c #D2D2D2",
"^. c LightGray",
"/. c gray83",
"(. c #D5D5D5",
"). c gray84",
"_. c #D7D7D7",
"`. c #D8D8D8",
"'. c gray85",
"]. c #DADADA",
"[. c gray86",
"{. c gainsboro",
"}. c #DDDDDD",
"|. c gray87",
" X c #DFDFDF",
".X c gray88",
"XX c #E1E1E1",
"oX c #E2E2E2",
"OX c gray89",
"+X c #E4E4E4",
"@X c gray90",
"#X c #E6E6E6",
"$X c #E7E7E7",
"%X c gray91",
"&X c #E9E9E9",
"*X c #EAEAEA",
"=X c gray92",
"-X c #ECECEC",
";X c gray93",
":X c #EEEEEE",
">X c #EFEFEF",
",X c gray94",
"<X c #F1F1F1",
"1X c gray95",
"2X c #F3F3F3",
"3X c #F4F4F4",
"4X c gray96",
"5X c #F6F6F6",
"6X c #F8F8F8",
"7X c #F9F9F9",
"8X c gray98",
"9X c #FBFBFB",
"0X c gray99",
"qX c #FDFDFD",
"wX c #FEFEFE",
"eX c white",
/* pixels */
"eXeXeXeXeXeXeXeXeXeXeXeXeXeXeXeXeXeXeXeXeXeXeXeXeXeX9XeX9XeXeXeXeXeXeXeXeXeXeXeXeXeXeXeXeXeXeXeXeXeXeXeXeXeXeXeXeXeXeXeXeXeXeXeX",
"eXeXeXeXeXeXeXeXeXeXeXeXeXeXeXeXeXeXeXeXeXeXeXeXeXeX9XeXeXeXeXeXeXeXeXeXeXeXeXeXeXeXeXeXeXeXeXeXeXeXeXeXeXeXeXeXeXeXeXeXeXeXeXeX",
"eXeXeXeXeXeXeXeXeXeXeXeXeXeXeXeXeXeXeXeXeXeXeXeXeXeXeXeXeXeXeX9XeXeXeXeXeXeXeXeXeXeXeXeXeXeXeXeXeXeXeXeXeXeXeXeXeXeXeXeXeXeXeXeX",
"eXeXeXeXeXeXeXeXeXeXeXeXeXeXeXeXeXeXeXeXeXeXeXeXeX9XeXeXeXeXeXeXeXeXeXeXeXeXeXeXeXeXeXeXeXeXeXeXeXeXeXeXeXeXeXeXeXeXeXeXeXeXeXeX",
"eXeXeXeXeXeXeXeXeXeXeXeXeXeXeXeXeXeXeXeXeXeXeXeXeXeXeXeXeXeXeXeXeXeXeXeXeXeXeXeXeXeXeXeXeXeXeXeXeXeXeXeXeXeXeXeXeXeXeXeXeXeXeXeX",
"eXeXeXeXeXeXeXeXeXeXeXeXeXeXeXeXeXeXeXeXeXeXeXeXeXeXeXeXeXeXeXeXeXeXeXeXeXeXeXeXeXeXeXeXeXeXeXeXeXeXeXeXeXeXeXeXeXeXeXeXeXeXeXeX",
"eXeXeXeXeXeXeXeXeXeXeXeXeXeXeXeXeXeXeXeXeXeXeXeXeXeXeX>Xn.>XeXeXeXeXeXeXeXeXeXeXeXeXeXeXeXeXeXeXeXeXeXeXeXeXeXeXeXeXeXeXeXeXeXeX",
"eXeXeXeXeXeXeXeXeXeXeXeXeXeXeXeXeXeXeXeXeXeXeXeXeXeXeXU.y 5.,XeXeXeXeXeXeXeXeXeXeXeXeXeXeXeXeXeXeXeXeXeXeXeXeXeXeXeXeXeXeXeXeXeX",
"eXeXeXeXeXeXeXeXeXeXeXeXeXeXeXeXeXeXeXeXeXeXeXeXeXeXeXz.< - m >XeXeXeXeXeXeXeXeXeXeXeXeXeXeXeXeXeXeXeXeXeXeXeXeXeXeXeXeXeXeXeXeX",
"eXeXeXeXeXeXeXeXeXeXeXeXeXeXeXeXeXeXeXeXeXeXeXeXeXeXeXs.& o - z.eXeXeXeXeXeXeXeXeXeXeXeXeXeXeXeXeXeXeXeXeXeXeXeXeXeXeXeXeXeXeXeX",
"eXeXeXeXeXeXeXeXeXeXeXeXeXeXeXeXeXeXeXeXeX9XeXeXeXeXeXu.& o & q.eX9X>X9XeXeXeXeX,X9XeXeXeXeXeXeXeXeXeXeXeXeXeXeXeXeXeXeXeXeXeXeX",
"eXeXeXeXeXeXeXeXeXeXeXeXeXeXeXeXeXeXeXeXeXeXeXeXeXeXeXq.o o < =.z.$.P / O.O.[ / ) ,..XeXeXeXeXeXeXeXeXeXeXeXeXeXeXeXeXeXeXeXeXeX",
"eXeXeXeXeXeXeXeXeXeXeXeXeXeXeXeXeXeXeXeXeXeXeXeXeXeX9X,.o o o k h O o o & o o o o S ).eXeXeXeXeXeXeXeXeXeXeXeXeXeXeXeXeXeXeXeXeX",
"eXeXeXeXeXeXeXeXeXeXeXeXeXeXeXeXeXeXeXeXeX XM.g.q.r.,.n o & o o o o o O o o o - h s.eXeXeXeXeXeXeXeXeXeXeXeXeXeXeXeXeXeXeXeXeXeX",
"eXeXeXeXeXeXeXeXeXeXeXeXeXeXeXeXeXeX>X Xv./ 2 o O O o o o o o 2 9 c J E J E O.,.Z.9XeXeX9XeXeXeXeXeXeXeXeXeXeXeXeXeXeXeXeXeXeXeX",
"eXeXeXeXeXeXeXeXeXeXeXeXeXeXeXeX`.g.E y & o o O o o o & o o O J R.$X9XeX9XeXeXeXeXeX9XeXeXeXeXeXeXeXeXeXeXeXeXeXeXeXeXeXeXeXeXeX",
"eXeXeXeXeXeXeXeXeX9XeXeXeXeXeXeX)./ & o o o o o o 2 =.J o o - s.eXeXeXeXeXeXeXeXeXeXeXeXeXeXeXeXeXeXeXeXeXeXeXeXeXeXeXeXeXeXeXeX",
"eXeXeXeXeXeXeXeX4X9XeXeXeXeXeXeXeX%XG.u.$.~ ) =.Z.R.eXq.< o o Z.eXeXeX%X`.>XeXeXeXeXeXeXeXeXeXeXeXeXeXeXeXeXeXeXeXeXeXeXeXeXeXeX",
"eXeXeXeXeXeXeXeXeXeXeX9XeXeX9XeXeXeXeXeXeX9X4XeXeXeXeX=.o o 2 ).eX`.3.V s P 5.M.~.,XeXeXeXeXeXeXeXeXeXeXeXeXeXeXeXeXeXeXeXeXeXeX",
"eXeXeXeXeXeXeXeXeXeXeX9XeXeXeXeXeXeXeXeXeXeXeXeXeXeXeXO.o & w 5.3.P < o o o & < k ~ ,.n.$XeXeXeXeXeXeXeXeXeXeXeXeXeXeXeXeXeXeXeX",
"eXeXeXeXeXeXeXeX9XeXeXeXeXeXeXeXeXeXeXeXeXeXeX9X4X>X%XO.o o o & o o o O - O o o o o o ~ R.eXeXeXeXeXeXeXeXeXeXeXeXeXeXeXeXeXeXeX",
"eXeXeXeXeXeXeXeXeXeXeXeXeXeXeXeXeXeXeXeXeXeXeXeX=.V V r o & o o O & o o o o o & < o 2 r.eXeX9XeXeXeXeXeXeXeXeXeXeXeXeXeXeXeXeXeX",
"eXeXeXeXeXeXeXeXeXeX9XeX9XeXeX,XeXeXeXeXeXeX9XeXg.c o o o o o n @.[ r o o o o o o y 5.%XeXeX9XeXeXeXeXeXeXeXeXeXeXeXeXeXeXeXeXeX",
"eXeXeXeXeXeXeXeXeXeXeXeXeXeX4XG.Z.4XeXeXeXU.Z.9XeX8.w o o o k  XeX>X[ o o o o O o 3.eXeX9XeXeXeXeXeXeXeXeXeXeXeXeXeXeXeXeXeXeXeX",
"eXeXeXeXeXeXeXeXeXeXeXeX9XeX4XU.h ) `. XO.h r.eXeX,X~.g.9 o G >X$Xs.) < o o o o - R.eXeXeXeXeXeXeXeXeXeXeXeXeXeXeXeXeXeXeXeXeXeX",
"eXeXeXeXeXeXeXeXeXeXeXeXeXeXeX,X3.h 2 y O o q.eXeXeXeXR.c O < ~ 2 - r o o o o o m $XeXeXeXeXeXeXeXeXeXeXeXeXeXeXeXeXeXeXeXeXeXeX",
"eXeXeXeXeXeXeXeXeXeXeXeXeX9XeXeXeXr.2 o o o ~ J. XU.u.@.- o o & < n O.2 o o o o ,.eXeXeXeXeXeXeXeXeXeXeXeXeXeXeXeXeXeXeXeXeXeXeX",
"eXeXeXeXeXeXeXeXeXeXeXeXeX9X9XeXeXeX5.< o o o y k - o & o o 2 [ G.$X.Xk o o o o Z.eXeXeXeXeXeXeXeXeXeXeXeXeXeXeXeXeXeXeXeXeXeXeX",
"eXeXeXeXeXeXeXeX9XeXeXeXeXeXeXeX9XeX$XP o O o o o w k / y o n  XeXeX~.< o o o h $XeXeXeXeXeXeXeXeXeXeXeXeXeXeXeXeXeXeXeXeXeXeXeX",
"eXeXeXeXeXeXeXeXeXeXeXeXeXeXeXeXeXeXeXz.& o & o n J.,X$X~ o m eXeXeX8.o o o O ) eXeXeXeXeXeXeXeXeXeXeXeXeXeXeXeXeXeXeXeXeXeXeXeX",
"eXeXeXeXeXeXeXeXeXeXeXeXeX9XeXeXeX9XeX%XP o o o y ).eXeX| o m >XeX9X[ o o o o 8.eXeXeXeXeXeXeXeXeXeXeXeXeXeXeXeXeXeXeXeXeXeXeXeX",
"eXeXeXeXeXeXeXeXeX9X9XeXeXeXeXeXeXeXeXeXg.9 o & O M.eXeXO.o V 9XeX9XG o o o - J.eXeXeXeXeXeXeXeXeXeXeXeXeXeXeXeXeXeXeXeXeXeXeXeX",
"eXeXeXeXeXeXeXeXeXeXeXeXeXeXeXeXeXeXeXeX9Xq.o o o ) eXeX~ o n  X~.r.y O < o r `.eXeXeXeXeXeXeXeXeXeXeXeXeXeXeXeXeXeXeXeXeXeXeXeX",
"eXeXeXeXeXeXeXeXeXeXeXeXeXeXeXeXeX9XeXeXeXM.- o o s -.r.n o O c r o o o o & | .XeXeXeXeXeXeXeXeXeXeXeXeXeXeXeXeXeXeXeXeXeXeXeXeX",
"eXeXeXeXeXeXeXeXeXeXeXeXeXeXeXeXeXeXeXeXeXG.9 o o o o & O o o o o 9 S E ) 8.R.eXeXeXeXeXeXeXeXeXeXeXeXeXeXeXeXeXeXeXeXeXeXeXeXeX",
"eXeXeXeXeXeXeXeXeXeXeXeXeXeXeXeXeXeXeXeXeX).E 9 o o o o o o o o k C.>X`.4XeXeXeXeXeXeXeXeXeXeXeXeXeXeXeXeXeXeXeXeXeXeXeXeXeXeXeX",
"eXeXeXeXeXeXeXeXeXeXeXeXeXeXeXeXeXeXeXeXeXeXR.g.< & & o O O o o k U.eXeXeXeXeXeXeXeXeXeXeXeXeXeXeXeXeXeXeXeXeXeXeXeXeXeXeXeXeXeX",
"eXeXeXeXeXeXeXeXeXeXeXeXeXeXeXeXeXeXeXeXeXeXeX~.< o o o o O o o o ) .XeXeXeXeX4XeXeXeXeXeXeXeXeXeXeXeXeXeXeXeXeXeXeXeXeXeXeXeXeX",
"eXeXeXeXeXeXeXeXeXeXeXeXeXeXeXeXeXeXeXeXeXeX~.| o o o m O o o o o < =..XeXeXeXeXeXeXeXeXeXeXeXeXeXeXeXeXeXeXeXeXeXeXeXeXeXeXeXeX",
"eXeXeXeXeXeXeXeXeXeXeXeXeXeXeXeXeXeXeXeXeX4X8.o o o h r.h o o o O o O -.4XeX,XeXeXeXeXeXeXeXeXeXeXeXeXeXeXeXeXeXeXeXeXeXeXeXeXeX",
"eXeXeXeXeXeXeXeX9XeXeXeXeXeXeXeXeXeXeXeXeXn.2 o o 9 n.P.9 o < o o O o o E ~.eXeXeXeXeXeXeXeXeXeXeXeXeXeXeXeXeXeXeXeXeXeXeXeXeXeX",
"eXeXeXeXeXeXeXeXeXeXeXeXeXeXeX9XeXeXeXeX XJ o o - $.,XU.- o S ,.- o o o o y r.eXeXeXeXeXeXeXeX9XeXeXeXeXeXeXeXeXeXeXeXeXeXeXeXeX",
"eXeXeXeXeXeXeXeXeXeXeXeXeXeXeXeXeXeXeX.X~ O o o ~ `.eXC.O o ) 4Xn.G o o o o r G `.9XeXeXeXeXeXeXeXeXeXeXeXeXeXeXeXeXeXeXeXeXeXeX",
"eXeXeXeXeXeXeXeXeXeXeX9X9XeXeXeXeXeX>XO.o o O h U.eXeXg.& o ) eXeXR.$.y o o o & V 5.$XeXeXeXeXeXeXeXeXeXeXeXeXeXeXeXeXeXeXeXeXeX",
"eXeXeXeXeXeXeXeXeXeXeXeXeXeXeXeXeX9X,.& o o < n.eXeXeXz.& o / eXeXeXeXC.P < o o o 9 ) M.%XeXeXeXeXeXeXeXeXeXeXeXeXeXeXeXeXeXeXeX",
"eXeXeXeXeXeXeXeXeX9XeXeXeXeXeXeXeXg.w o o 2 5.eXeXeXeXv.o o | eXeXeXeXeX%Xv.G o o o o 2 E u.`.eXeXeXeXeXeXeXeXeXeXeXeXeXeXeXeXeX",
"eXeXeXeXeXeXeXeXeXeX9XeXeXeXeX9X).V o & r 3.eXeXeXeXeXu.o o O.eXeXeXeXeXeXeX XC.V s & o o O m O.R.%XeXeXeXeXeX9XeXeXeXeXeXeXeXeX",
"eXeXeXeXeXeXeXeXeXeXeXeXeXeX9X4X) - o h g.9XeXeXeXeX9X,.o O [ eXeXeXeXeXeXeXeXeXeXZ.O.k - o o O < E v.$XeXeXeXeXeXeXeXeXeXeXeXeX",
"eXeXeXeXeXeXeXeXeXeXeXeXeXeX$X[ o 9 @.).eXeXeXeX9XeXu.V o o -.eXeXeXeXeXeXeXeXeXeXeXeX.XM.@.h O o o O k q.eXeXeXeXeXeXeXeXeXeXeX",
"eXeXeXeXeXeXeXeXeXeXeXeX9X%XJ.$.8.C.%XeXeXeXeXeXeXU.k & & O | eXeXeXeXeXeXeXeXeXeXeXeXeXeXeX.XR.,.~ y - V J.eXeXeXeXeXeXeXeXeXeX",
"eXeXeXeXeXeXeXeXeXeXeXeXeX9X9X9X9XeXeXeXeXeXeXeXeXZ.9 o O O ) eXeXeXeXeXeXeXeXeXeXeXeXeXeXeXeXeXeX9X.XG.n.$XeXeXeXeXeXeXeXeXeXeX",
"eXeXeXeXeXeXeXeXeXeXeXeXeX9XeXeXeXeXeXeXeXeXeXeXeX%X[ o o o [ 4XeXeXeXeXeXeXeXeXeXeXeXeXeXeXeXeXeXeXeXeX4XeXeXeXeXeXeXeXeXeXeXeX",
"eXeXeXeXeXeXeXeXeXeXeXeXeXeXeXeXeXeXeXeXeXeXeXeXeXeXC.m o o [ ,XeXeXeXeXeXeXeXeXeXeXeXeXeXeXeX9XeXeXeXeXeXeXeXeXeXeXeXeXeXeXeXeX",
"eXeXeXeXeXeXeXeXeXeXeXeXeXeXeX9XeXeXeXeXeXeXeXeXeXeX4XC.S o / eXeXeXeXeXeXeXeXeXeXeXeXeXeXeXeXeXeXeXeXeXeXeXeXeXeXeXeXeXeXeXeXeX",
"eXeXeXeXeXeXeXeXeXeXeXeXeXeXeXeXeXeXeXeXeXeXeXeXeXeXeXeXz.m 8.eXeXeXeXeXeXeXeXeXeXeXeXeXeX9XeXeXeXeXeXeX9XeXeXeXeXeXeXeXeXeXeXeX",
"eXeXeXeXeXeXeXeXeXeXeX9XeXeXeXeXeXeXeXeXeXeXeXeXeXeXeXeXeXR.>XeXeXeXeXeXeXeXeXeXeXeXeXeXeXeXeXeXeXeX9XeXeXeXeXeXeXeXeXeXeXeXeXeX",
"eXeXeXeXeXeXeXeXeXeXeXeXeXeXeXeXeXeXeXeXeXeXeXeXeXeXeXeXeXeXeXeXeXeXeXeXeXeXeXeXeXeXeXeXeXeXeXeXeXeXeXeXeXeXeXeXeXeXeXeXeXeXeXeX",
"eXeXeXeXeXeXeXeXeXeXeXeXeXeXeXeXeXeXeXeXeXeXeXeXeXeXeXeXeXeXeXeXeXeXeXeXeXeXeXeXeXeXeXeXeXeXeXeXeXeXeXeXeXeXeXeXeXeXeXeXeXeXeXeX",
"eXeXeXeXeXeXeXeXeXeXeXeXeXeXeXeXeXeXeXeXeXeXeXeXeXeXeXeXeXeXeXeXeXeXeXeXeXeXeXeXeXeXeXeXeXeXeXeXeXeXeXeXeXeXeXeXeXeXeXeXeXeXeXeX",
"eXeXeXeXeXeXeXeXeXeXeXeXeXeXeXeXeXeXeXeXeXeXeXeXeXeXeXeXeXeXeXeXeXeXeXeXeXeXeXeXeXeXeXeXeXeXeXeXeXeXeXeXeXeXeXeXeXeXeXeXeXeXeXeX",
"eXeXeXeXeXeXeXeXeXeXeXeXeXeXeXeXeXeXeXeXeXeXeXeXeXeXeXeXeXeXeXeXeXeXeXeXeXeXeXeXeXeXeXeXeXeXeXeXeXeXeXeXeXeXeXeXeXeXeXeXeXeXeXeX",
"eXeXeXeXeXeXeXeXeXeXeXeXeXeXeXeXeXeXeXeXeXeXeXeXeXeXeXeXeXeXeXeXeXeXeXeXeXeXeXeXeXeXeXeXeXeXeXeXeXeXeXeXeXeXeXeXeXeXeXeXeXeXeXeX",
"eXeXeXeXeXeXeXeXeXeXeXeXeXeXeXeXeXeXeXeXeXeXeXeXeXeXeXeXeXeXeXeXeXeXeXeXeXeXeXeXeXeXeXeXeXeXeXeXeXeXeXeXeXeXeXeXeXeXeXeXeXeXeXeX",
"eXeXeXeXeXeXeXeXeXeXeXeXeXeXeXeXeXeXeXeXeXeXeXeXeXeXeXeXeXeXeXeXeXeXeXeXeXeXeXeXeXeXeXeXeXeXeXeXeXeXeXeXeXeXeXeXeXeXeXeXeXeXeXeX"
};
