/* XPM */
static char *_0546aa743234aeee798a2e97bd8b764XHFsP8QW2PSw1O4i[] = {
/* columns rows colors chars-per-pixel */
"64 64 224 2 ",
"   c #333C27",
".  c #39452E",
"X  c #3F4A33",
"o  c #3D4632",
"O  c #424E36",
"+  c #465139",
"@  c #485539",
"#  c #53593E",
"$  c #53693C",
"%  c #5C7A3B",
"&  c #535D44",
"*  c #5B6947",
"=  c #5D7247",
"-  c #5B6851",
";  c #61674D",
":  c #64774D",
">  c #676E54",
",  c #697955",
"<  c #727958",
"1  c #747D65",
"2  c #757C6C",
"3  c #AF2F31",
"4  c #B73733",
"5  c #AA2F33",
"6  c #C43639",
"7  c #D5373C",
"8  c #C0403F",
"9  c #D2463C",
"0  c #BA3840",
"q  c #D83E44",
"w  c #C43C42",
"e  c #DC4548",
"r  c #DF4B50",
"t  c #D8565A",
"y  c #D0514A",
"u  c #E74648",
"i  c #E44B51",
"p  c #E95859",
"a  c #F65759",
"s  c #F64C50",
"d  c #DB6347",
"f  c #D15A60",
"g  c #EE5B62",
"h  c #D96D69",
"j  c #EC6766",
"k  c #F76668",
"l  c #E97374",
"z  c #F37A7D",
"x  c #F7787B",
"c  c #EC7369",
"v  c #6A864C",
"b  c #68854B",
"n  c #6D8655",
"m  c #74895C",
"M  c #75875D",
"N  c #759352",
"B  c #7C9C56",
"V  c #7D9E5B",
"C  c #789659",
"Z  c #7DA255",
"A  c #748564",
"S  c #7D9663",
"D  c #82A35D",
"F  c #88AB5D",
"G  c #8BB15F",
"H  c #83996A",
"J  c #879A76",
"K  c #828771",
"L  c #8AAD63",
"P  c #8CAB69",
"I  c #86A965",
"U  c #97AF6B",
"Y  c #8CB264",
"T  c #8EB36B",
"R  c #8FB86B",
"E  c #90B66B",
"W  c #94BA6C",
"Q  c #8DA37A",
"!  c #8DA774",
"~  c #95AD7C",
"^  c #97AD77",
"/  c #95BB71",
"(  c #98BF74",
")  c #95B47C",
"_  c #9BBC7D",
"`  c #9AB67A",
"'  c #8FB377",
"]  c #A8BF7C",
"[  c #E19450",
"{  c #E6A15C",
"}  c #F5BA66",
"|  c #9BC373",
" . c #9CC479",
".. c #97C072",
"X. c #98C26E",
"o. c #A2CC76",
"O. c #A4CC7B",
"+. c #A9C17D",
"@. c #A6D17A",
"#. c #A9D47C",
"$. c #A6D277",
"%. c #F4CC7B",
"&. c #F27C80",
"*. c #959A8A",
"=. c #8F9589",
"-. c #94A284",
";. c #98A986",
":. c #9CB484",
">. c #9EB58B",
",. c #99BA84",
"<. c #9FA397",
"1. c #A2B38B",
"2. c #A4BC8E",
"3. c #A0B886",
"4. c #A5A898",
"5. c #AAB899",
"6. c #ABB5A2",
"7. c #B3BBA6",
"8. c #B4B7B1",
"9. c #F58689",
"0. c #E99798",
"q. c #F99C9D",
"w. c #F69897",
"e. c #E9898D",
"r. c #DF9DA0",
"t. c #F6A5A7",
"y. c #EFB0AF",
"u. c #EEBCBD",
"i. c #E5B0B0",
"p. c #F4B4B4",
"a. c #F3BBBC",
"s. c #F9B9BA",
"d. c #F9B6B7",
"f. c #AAC689",
"g. c #B3C98C",
"h. c #ADD881",
"j. c #B3D28F",
"k. c #AAC396",
"l. c #BBCC93",
"z. c #B5CB98",
"x. c #B6D497",
"c. c #B4C4A6",
"v. c #B9C5A9",
"b. c #BAD2A7",
"n. c #BEC1B9",
"m. c #BFD2B4",
"M. c #C0CF98",
"N. c #C4D29D",
"B. c #F6DB89",
"V. c #F6CF94",
"C. c #F9E48C",
"Z. c #FCED91",
"A. c #C6D4A7",
"S. c #C3C7BF",
"D. c #C8C5BF",
"F. c #C6C9BA",
"G. c #C4D5B4",
"H. c #C6D4BD",
"J. c #C8D9B4",
"K. c #D3DCBA",
"L. c #C1CCAC",
"P. c #F2C1B1",
"I. c #F8F0AF",
"U. c #FCE1B2",
"Y. c #CACAC4",
"T. c #CCD5C5",
"R. c #D4DAC8",
"E. c #D7DCD3",
"W. c #DBDCD5",
"Q. c #DDDBD9",
"!. c #D0CECA",
"~. c #EBC1C2",
"^. c #E9CBCB",
"/. c #F5CBCB",
"(. c #F6C7C7",
"). c #FACFD0",
"_. c #EBD4D4",
"`. c #E1DDDA",
"'. c #ECDCDB",
"]. c #E8D5D5",
"[. c #F3D3D3",
"{. c #F4DCDB",
"}. c #F8DCDC",
"|. c #F9D7D7",
" X c #F9D8C5",
".X c #DBE4CB",
"XX c #D5E1C5",
"oX c #DBE3D4",
"OX c #DFE5D9",
"+X c #FBF2C8",
"@X c #E3E3DD",
"#X c #E5E6DB",
"$X c #F2E0DF",
"%X c #FAFFDF",
"&X c #EEDFE2",
"*X c #F7DFE0",
"=X c #E5E3E1",
"-X c #EBE5E4",
";X c #ECECE5",
":X c #EDECEA",
">X c #E9E7E6",
",X c #F5E4E4",
"<X c #F4E9E7",
"1X c #F2EDEC",
"2X c #F8EDED",
"3X c #F8E0E1",
"4X c #EEF0E6",
"5X c #EEF0ED",
"6X c #F1F1E7",
"7X c #F3F1ED",
"8X c #F8F1EE",
"9X c #F4EEF1",
"0X c #F7F6F7",
"qX c #F5F5F5",
"wX c #F5F5F5",
"eX c #F8F6F6",
"rX c #F9F6F5",
"tX c #F9F8F7",
"yX c #F7F7F8",
"uX c #F9F7F9",
"iX c #F8F7F9",
"pX c #F9F9F9",
"aX c #FBFAFC",
"sX c #F5FAF8",
/* pixels */
"qXqXqXqXqXqXqXqXqXqXqXqXqXqXqXqXqXqXqXqXqXqXqXqXqXqXqXyXqXqXqXqXqXqXqXqXqXqXqXqXqXqXqXqXqXqXqXqXqXqXqXqXqXqXqXqXqXqXqXqXqXqXqXqX",
"qXqXqXqXqXqXqXqXqXqXqXqXqXqXqXqXqXqXqXqXqXqXqXqXqXqXqXwXqXqXqXqXqXqXqXqXqXqXqXqXqXqXqXqXqXqXqXqXqXqXqXqXqXqXqXqXqXqXqXqXqXqXqXqX",
"qXqXqXqXqXqXqXqXqXqXqXqXqXqXqXqXqXqXqXqXqXqXqXqXqXqXqXqXqXqXqXqXqXqXqXqXqXqXqXqXqXqXqXqXqXqXqXqXqXqXqXqXqXqXqXqXqXqXqXqXqXqXqXqX",
"qXqXqXqXqXqXqXqXqXqXqXqXqXqXqXqXqXqXqXqXqXqXqXqXqXqXqXqXqXqXqXqXqXqXqXqXqXqXqXqXqXqXqXqXqXqXqXqXqXqXqXqXqXqXqXqXqXqXqXqXqXqXqXqX",
"qXqXqXqXqXqXqXqXqXqXqXqXqXqXqXqXqXqXqXqXqXqXqXqXqXqXqXqXqXqXqXqXqXqXqXqXqXqXqXqXqXqXqXqXqXqXqXqXqXqXqXqXqXqXqXqXqXqXqXqXqXqXqXqX",
"qXqXqXqXqXqXqXqXqXqXqXqXqXqXqXqXqXqXqXqXqXqXqXqXqXqXqXqXqXqXqXqXqXqXqXqXqXqXqXqXqXqXqXqXqXqXqXqXqXqXqXqXqXqXqXqXqXqXqXqXqXqXqXqX",
"qXqXqXqXqXqXqXqXqXqXqXqXqXqXqXqXqXqXqXqXqXqXqXqXqXqXqXqXqXqXqXqXqXqXqXqXqXqXqXqXqXqXqXqXqXqXqXqXqXqXqXqXqXqXqXqXqXqXqXqXqXqXqXqX",
"qXqXqXqXqXqXqXqXqXqXqXqXqXqXqXqXqXqXqXqXqXqXqXqXqXqXqXqXqXqXqXqXqXqXqXqXqXqXqXqXqXqXqXqXqXqXqXqXqXqXqXqXqXqXqXqXqXqXqXqXqXqXqXqX",
"qXqXqXqXqXqXqXqXqXqXqXqXqXqXqXqXqXqXqXqXqXqXqXqXqXqXqXqXqXqXqXqXqXqXqXqXqXqXqXqXqXqXqXqXqXqXqXqXqXqXqXqXqXqXqXqXqXqXqXqXqXqXqXqX",
"qXqXqXqXqXqXqXqXqXqXqXqXqXqXqXqXqXqXqXqXqXqXqXqXqXqXqXqXqXqXqXqXqXqXqXqXqXqXqXqXqXqXqXqXqXqXqXqXqXqXqXqXqXqXqXqXqXqXqXqXqXqXqXqX",
"qXqXqXqXqXqXqXqXqXqXqXqXqXqXqXqXqXqXqXqXqXqXqXqXqXqXqXqXqXqXqXqXqXqXqXqXwXwXwXwXqXwXqXqXqXqXqXqXqXqXqXqXqXqXqXqXqXqXqXqXqXqXqXqX",
"qXqXqXqXqXqXqXqXqXqXqXqXqXqXqXqXqXqXqXqXqXqXqXqXqXqXqXqXqXqXqXqXqXqXqXqXwXwXwXwXqXwXqXqXwXqXqXqXqXqXqXqXqXqXqXqXqXqXqXqXqXqXqXqX",
"qXqXqXqXqXqXqXqXqXqXqXqXqXqXqXqXqXqXqXqXqXqXqXqXqXqXqXqXwXwXwXqXqXqXqXqXqXwXwXwXqXaXwXqXaXwXqXqXqXqXqXqXqXqXqXqXqXqXqXqXqXqXqXqX",
"qXqXqXqXqXqXqXqXqXqXqXqXqXqXqXqXqXqXqXqXqXqXqXqXqXqXqXqXwXwXwXqXqXqXqXwXwX1XrX;X*.W.aXwX5.>XuXwXqXqXqXqXqXqXqXqXqXqXqXqXqXqXqXqX",
"qXqXqXqXqXqXqXqXqXqXqXqXqXqXqXqXqXqXqXqXqXqXqXqXqXqXqXqXwXwXwXwXqXwXwX2XwXwX1XaX4.1 rX6.1 wXqXqXqXqXqXqXqXqXqXqXqXqXqXqXqXqXqXqX",
"qXqXqXqXqXqXqXqXqXqXqXqXqXqXqXqXqXqXqXqXqXqXqXqXqXqXqXqXwXwXrXrXwXwXwXwXwX7X7XaXF.# K < K aXwXqXqXqXqXqXqXqXqXqXqXqXqXqXqXqXqXqX",
"qXqXqXqXqXqXqXsXqXqXqXqXqXqXqXqXqXqXwXwXwXwXqXqXqXqXqXqXqXqXiXrXrXrXrXrXrX9X8XaX].> < * Y.aX7XqXqXqXqXqXqXqXqXqXqXqXqXqXqXqXqXqX",
"qXqXqXqXqXqXqXqXqXqXqXqXqXqXqXqXqXqXwXwXwXwXwXwX9XqXqXqXqXwXiXqX9X9X9X9X9XwXrX9XrX*.; # <.5XaXqXsXqXqXyXqXqXqXqXqXqXqXqXqXqXqXqX",
"qXqXqXqXqXqXqXqXqXqXqXqXqXqXqXqXqXwXwXwXwXwXwXwXqXqXwXqXqXqXiX9XqXwXwXwXrXwXwXwXtX@X; > * H R.5X:X5X5X5X5XsXqX0XqXqXqXwXqXqXqXqX",
"qXqXqXqXqXqXqXqXqXqXqXqXqXqXqXqXwXqX7XwX7XwX7XwX9X9X:X9XqXqXiXqXiXwX9XrXrX9XwXwXrXE.n H E E T / ,.k.,.,.c.4XwXwXqXqXsXaXuXqXqXqX",
"qXqXqXqXqXqXqXqXqXqXqXqXqXqXqXwXwXwX8X7X7X7XwXwXwX9X-X9XrXuXrXrX9X9XwXuXwX9XiX9XrXH.N L E | | R R / | o.O.f.j.j.j.j.b.H.OXqXqXqX",
"qXqXqXqXqXqXqXqXqXqXqXqXqXqXqXwX8XwXwXwX8XwXwXwXwXwXqX-XrXuXwX<X2X9X9XiXwXwX9X1X2XT.N D R | W W W X.X.| O.#.#.#.@.o.X...H.rXqXqX",
"qXqXqXqXqXqXqXqXqXqXqXqXqXqXqXwX8XwXrX7XwXqXrXrXuXwXrX&X2XyX2X3X,X9X2X9XqX9X9X-X9X1.% N T ` _ _ / T T W X.O.#.$. . .f..X0XqXqXqX",
"qXqXqXqXqXqXqXqXqXqXqXqXqXqXqX1X7XwX7XrXwXqXqXrXrXwX2X-X&XuX3X).*X,X}.<X1X1X:X=X$X5.v.H.@X=X=X@XoX) D T W /  . .R J.qXaXqXqXqXqX",
"qXqXqXqXqXqXqXqXqXqXqXqXqXqXwX:XwXwX8XrX0XwXrXrX2X2XwX<X_.qX}.d.).).d.$X|.,X-X-X5XtXtXwX7X:X4X:X7XE.I G ' ' ' k.m.5XqXwXqXqXqXqX",
"qXqXqXqXqXqXqXqXqXqXqXqXqXqX5X1XwXwXrXrXwXwXrX7X2X2X2X,Xa.,X|.q.w.q.t.s.t.|.;X7X7X7X7X4X6X7X7X4X4X;X1.Z Y V ! oXaXsXwXwXqXqXqXqX",
"qXqXqXqXqXqXqXwXqXqXqXqXqXqXwX1XrX7X7XsXwXrXwX2X,X,X,X|.9.t.{.q.d.x x x 9.#XwX7X7X7X7X7X7X7XqX8X6X;X7.N I ;.H.qX0XwXwXwXqXqXqXqX",
"qXqXqXqXqXqXqXwXqXqXwXwXwXwX7X1X6X8XwXrXtXqXwXwX,X[.s.q.k g a. X%Xw.s a y.sX1X;X7X7X8XwXqX0XtXrX6X-XQ % Q 5XaXqX0XwXsXwXqXqXqXqX",
"qXqXqXqXqXqXwXwXqXyXaXaXaXaXaXqXwX8X7XwXqXqXrX9X,X{.q.k s 7 h +XI.P.u l ,X,X{.<X2XwXwXqXaXtXrX7X;X-X6.Q v.:XyXqXqXqXqXqXqXqXqXqX",
"qXqXqXqXqXqXyXsXwX;X#X.X.XR.R.G.T.4X7X5XwXqXqXwX$X/.t.a u 6 y U.I.V.u p.p.t.(.<X2XrXrXaXaXqX7X4X;X#X`.wXaXsXqXqXqXqXqXqXqXqXqXqX",
"qXqXqXqXiXqX5XXXA.N.x.N.N.l.g.L.OXwX0XwX9XwX5X1X$X(.w.s u 6 9 B.C.B.c j a x p.{.3XrXtXaXaXwX6X4X<X;X@X:XwXwXqXqXqXqXqXqXqXqXqXqX",
"qXqXsXiX;XK.N.N.A.N.A.A.N.l.K.aXaXaXaXaXaXqXwX:X>X@X~.l e 6 4 %.B.B.j 7 s a w.(.$X1XrXtXtXwX6X6X4X-X`.wXqXqXqXqXqXqXqXqXqXqXqXqX",
"wXtX;XA.g.l.N.N.M.M.M.g.l.] .XaXqXaXaXtXaXtXwXwX9X9X=X&Xu.0.p } Z.C.d q u s x d.|.,X8XtXtXwX7X>X@XQ.:XwXqXqXqXqXqXqXqXqXqXqXqXqX",
"wXwXR.J..X#X#Xf.] +.] ] ] P #XaXtXaXsXaXaX0XwX7X:X,X_.p.e.j i d [ [ 9 q u i z d.|.<X7XtXtX8X;X@X`.`.wXwXqXqXqXqXqXqXqXqXqXqXqXqX",
"wXwXqXaXaXaX;Xz.l.R.L.U F U ;XaX0XtXrXaXtXsXwX5X:X-X^.q.g i q 5 5 4 3 t z l 9.t.[.,X7XrXrXrX6X4X@X`.wXwXqXqXqXqXqXqXqXqXqXqXqXqX",
"0XwXwXwXwXwXqXsXaXaX#XL.` ^ :XaXrXtXaXrXuXtXwXwX-X_.u.t.&.g q 0 y 6 6 w 0.{.a.u.[.1XrXrXrXwX7X4X#X@XrXwXqXqXqXqXqXqXqXqXqXqXqXqX",
"wXwX0XwXqXqXqXwXwX7XsXaX5X>XqXqXwXrXwX7XwXwXwX:X<X].^.a.0.l t f t q q i f ~.wX2X1X7XrXwXrX7X7X6X`.=XyXqXqXqXqXqXqXqXqXqXqXqXqXqX",
"wXwXwXwXqXqXqXqXwXwXqXqXqXyXqXaXwX1X2X7X7XwX8X7X9X:X-X_.~.0.0.i.l i p g e.e.^.>XwXwX8X7X6X7X7X#X&XwXqXqXqXqXqXqXqXqXqXqXqXqXqXqX",
"wXsXwX0XqXqXqXqXqXqXqXqXqXwXwXyXrX8XwX7XqX0XrXqX9X:X:X-X`.^.].P.0.z 9.w.t.(.].Q.=X:X1X:X6XR.;.8.aXsXqXqXqXqXqXqXqXqXqXqXqXqXqXqX",
"wXwXwXwXqXqXqXqXqXqXqXqXqXyX5XqXrXrXrXrX2X9X1X1X7X9X9X>X&X=X>X~.~.y.t.(.a.[.<X-X-X@X-X-X1XW.m v ;.oXaXqXqXqXqXqXqXqXqXqXqXqXqXqX",
"wXwXqXqXqXqXqXqXqXqXqXqXqXqXqX5XwXwXwX9X1X1X9XwXwXwX2X;X=X1X-X/.'.{.[./.[.[.2X7X7X;X1X9X1X9X5.v V S 6.wXqXqXqXqXqXqXqXqXqXqXqXqX",
"wXwXqXqXqXqXqXqXqXqXqXqXqXqXqXqX1XrXaXiX9XrXrXrX2XwX7X=X1XwX-X<X<X:XwX-X-X2X8XrXwX7X2XwX9X8X1.B T Y >.sXsXqXqXqXqXqXqXqXqXqXqXqX",
"qXqXqXqXqXqXqXqXqXqXqXqXqXqXqXqXaX@X7.`.aXrX2X7X2X9X:X&XwXrX1XwXwX1XwX7X1X7XtXtXrXrX7XwXtXv.n D Y Y ' m.qXqXqXqXqXqXqXqXqXqXqXqX",
"qXqXqXqXqXqXqXqXqXqXqXqXqXqXqXaXE.J S J F.aXaXrXaXuX:X<X8XrXrXrXrXrXwXqXrXwXrXwXwX7XrXrX*.% : D Y Y R _ T.sXqXqXqXqXqXqXqXqXqXqX",
"qXqXqXqXqXqXqXqXqXqXqXqXqXqXaXE.A Q 1.J M *.F.D.!.!.D.-XrXrXrXrXwXrXrXrXrXwXwXwXaXaX;X;.% v v C I R W  .,.R.aXqXqXqXqXqXqXqXqXqX",
"qXqXqXqXqXqXqXqXqXqXqXqXqXqXsX>X~ 2.1.Q A $ O o o     !.aX9X2XwXrXrXwXwXrX7XaXrX!.4.: $ : N N D I T ..|  .k.5XsXqXqXqXqXqXqXqXqX",
"qXqXqXqXqXqXqXqXqXqXqXqXqXqXsXH.f.5.;.H , * # + O o   =.;X2X9XwX;X1X1X1X7XwX6.1 # O = b v B D D Y Y R | o.x.;XsXqXqXqXqXqXqXqXqX",
"qXqXqXqXqXqXqXqXqXqXqXqXqXyX5XQ >.3.~ S n : * + + @ +   2 `.:X5X7XqXqXqXwXaX=.o * * = b N D F F Y T R X.@.$.b.qXqXqXqXqXqXqXqXqX",
"qXqXqXqXqXqXqXqXqXqXqXqXqX0X5X2.,.,.! S M : X - + X & <.:XsXqXqXqXqXqXqXqXyX5XA , - - , m D Y Y Y R / / $.h.$.J.aXqXqXqXqXqXqXqX",
"qXqXqXqXqXqXqXqXqXqXqXqXqXsXE.~ 2.;.H = > 1 =.:Xn.S.:XaXqXqXqXqXqXqXqXqXqXyXsXOXQ.6.- n n C D L Y T ,./ $.$.h.@..XsXqXqXqXqXqXqX",
"qXqXqXqXqXqXqXqXqXqXqXqXqXaXT.:.! n , <.n.sXaX0XaXaXyX5XqXqXqXqXqXqXqXyXqXqXqXqXaXsXT.Y.Q -.>.V :.P ' ,._ ,. .@.f.5XsXqXqXqXqXqX",
"qXqXqXqXqXqXqXqXqXqXqXqXqXqX5.S A S.>XaXaXqXwXwXqXqXqXqXqXqXqXqXqXqXqXqXqXqXqXqXqXqXaXaX5XoXqXv.oXoXc.oXb.f.x. . .b.qXqXqXqXqXqX",
"qXqXqXqXqXqXqXqXqXqXqXqXsX@X-.T.>XaXsXqXqXqXqXqXqXqXqXqXqXqXqXqXqXqXqXqXqXqXqXqXqXqXqXqXqXsXqXsXqXsXaXiXyX:XqXoXm.b.;XsXqXqXqXqX",
"qXqXqXqXqXqXqXqXqXqXqXqXyXwXqXaXqXqXqXqXqXqXqXqXqXqXqXqXqXqXqXqXqXqXqXqXqXqXqXqXqXqXqXqXqXqXqXqXyXqXwXwXqXyXqXiXsXqXqXqXqXqXqXqX",
"qXqXqXqXqXqXqXqXqXqXqXqXqXqXqXqXqXqXqXqXqXqXqXqXqXqXqXqXqXqXqXqXqXqXqXqXqXqXqXqXqXqXqXqXqXqXqXqXqXqXqXqXqXqXqXwXqXqXqXqXqXqXqXqX",
"qXqXqXqXqXqXqXqXqXqXqXqXqXqXqXqXqXqXqXqXqXqXqXqXqXqXqXqXqXqXsXqXqXqXqXqXqXqXqXqXqXqXqXqXqXqXqXqXqXqXqXqXqXqXqXqXqXqXqXqXqXqXqXqX",
"qXqXqXqXqXqXqXqXqXqXqXqXqXqXqXqXqXqXqXqXqXqXqXqXqXqXqXqXqXqXqXqXqXqXqXqXqXqXqXqXqXqXqXqXqXqXqXqXqXqXqXqXqXqXqXqXqXqXqXqXqXqXqXqX",
"qXqXqXqXqXqXqXqXqXqXqXqXqXqXqXqXqXqXqXqXqXqXqXqXqXqXqXqXqXqXqXqXqXqXqXqXqXqXqXqXqXqXqXqXqXqXqXqXqXqXqXsXqXqXqXqXqXqXqXqXqXqXqXqX",
"qXqXqXqXqXqXqXqXqXqXqXqXqXqXqXqXqXqXqXqXqXqXqXqXqXqXqXqXqXqXqXqXqXqXqXqXqXqXqXqXqXqXqXqXqXqXqXqXqXqXqXqXqXqXqXqXqXqXqXqXqXqXqXqX",
"qXqXqXqXqXqXqXqXqXqXqXqXqXqXqXqXqXqXqXqXqXqXqXqXqXqXqXqXqXqXqXqXqXqXqXqXqXqXqXqXqXqXqXqXqXqXqXqXqXqXqXqXqXqXqXqXqXqXqXqXqXqXqXqX",
"qXqXqXqXqXqXqXqXqXqXqXqXqXqXqXqXqXqXqXqXqXqXqXqXqXqXqXqXqXqXqXqXqXqXqXqXqXqXqXqXqXqXqXqXqXqXqXqXqXqXqXqXqXqXqXqXqXqXqXqXqXqXqXqX",
"qXqXqXqXqXqXqXqXqXqXqXqXqXqXqXqXqXqXqXqXqXqXqXqXqXqXqXqXqXqXqXqXqXqXqXqXqXqXqXqXqXqXqXqXqXqXqXqXqXqXqXqXqXqXqXqXqXqXqXqXqXqXqXqX",
"qXqXqXqXqXqXqXqXqXqXqXqXqXqXqXqXqXqXqXqXqXqXqXqXqXqXqXqXqXqXqXqXqXqXqXqXqXqXqXqXqXqXqXqXqXqXqXqXqXqXqXqXqXqXqXqXqXqXqXqXqXqXqXqX",
"qXqXqXqXqXqXqXqXqXqXqXqXqXqXqXqXqXqXqXqXqXqXqXqXqXqXqXqXqXqXqXqXqXqXqXqXqXqXqXqXqXqXqXqXqXqXqXqXqXqXqXqXqXqXqXqXqXqXqXqXqXqXqXqX"
};
