/* XPM */
static char *_ca1931022bc471e94f83370d964390aWyk0bxxjWa1I5L3J[] = {
/* columns rows colors chars-per-pixel */
"64 64 221 2 ",
"   c None",
".  c #333C27",
"X  c #39452E",
"o  c #3F4A33",
"O  c #3D4632",
"+  c #424E36",
"@  c #465139",
"#  c #485539",
"$  c #53593E",
"%  c #53693C",
"&  c #5C7A3B",
"*  c #535D44",
"=  c #5B6947",
"-  c #5D7247",
";  c #5B6851",
":  c #61674D",
">  c #64774D",
",  c #676E54",
"<  c #6B7D54",
"1  c #687755",
"2  c #727958",
"3  c #747D65",
"4  c #757C6C",
"5  c #AF2F31",
"6  c #B73733",
"7  c #AA2F33",
"8  c #C33336",
"9  c #C53A3C",
"0  c #D5373C",
"q  c #C0403F",
"w  c #D2463C",
"e  c #BA3840",
"r  c #D83E44",
"t  c #C43C42",
"y  c #DC4548",
"u  c #DF4B50",
"i  c #D8565A",
"p  c #D0514A",
"a  c #E44244",
"s  c #E8474A",
"d  c #E44B51",
"f  c #E95859",
"g  c #F65759",
"h  c #F64C50",
"j  c #DB6347",
"k  c #D15A60",
"l  c #EE5B62",
"z  c #D96D69",
"x  c #EC6766",
"c  c #F76668",
"v  c #E97374",
"b  c #F37A7D",
"n  c #F7787B",
"m  c #EC7369",
"M  c #6A864C",
"N  c #68854B",
"B  c #6D8655",
"V  c #74895C",
"C  c #75875D",
"Z  c #759352",
"A  c #7C9C56",
"S  c #7D9E5B",
"D  c #789659",
"F  c #7DA255",
"G  c #748564",
"H  c #7D9663",
"J  c #82A35D",
"K  c #88AB5D",
"L  c #8BB15F",
"P  c #83996A",
"I  c #879A76",
"U  c #828771",
"Y  c #86AB64",
"T  c #8AAD63",
"R  c #8CAB69",
"E  c #85A667",
"W  c #97AF6B",
"Q  c #8CB264",
"!  c #8EB36B",
"~  c #8FB86B",
"^  c #90B66B",
"/  c #94BA6C",
"(  c #8DA37A",
")  c #8DA774",
"_  c #95AD7C",
"`  c #97AD77",
"'  c #95BB71",
"]  c #98BF74",
"[  c #95B47C",
"{  c #9BBC7D",
"}  c #9AB67A",
"|  c #8FB377",
" . c #A8BF7C",
".. c #E19450",
"X. c #E6A15C",
"o. c #F5BA66",
"O. c #9BC373",
"+. c #9CC479",
"@. c #97C072",
"#. c #98C26E",
"$. c #A2CC76",
"%. c #A4CC7B",
"&. c #A9C17D",
"*. c #A6D17A",
"=. c #A9D47C",
"-. c #A6D277",
";. c #F4CC7B",
":. c #F27C80",
">. c #959A8A",
",. c #8F9589",
"<. c #94A284",
"1. c #98A986",
"2. c #9CB484",
"3. c #9EB58B",
"4. c #99BA84",
"5. c #9FA397",
"6. c #A2B38B",
"7. c #A4BC8E",
"8. c #A0B886",
"9. c #A5A898",
"0. c #AAB899",
"q. c #ACB3A4",
"w. c #B3BBA6",
"e. c #ADAFA8",
"r. c #F58689",
"t. c #E99798",
"y. c #F99C9D",
"u. c #F69897",
"i. c #E9898D",
"p. c #DF9DA0",
"a. c #F2A3A4",
"s. c #F9A2A3",
"d. c #F6A9AB",
"f. c #EFB0AF",
"g. c #EEBCBD",
"h. c #E5B0B0",
"j. c #F4B4B4",
"k. c #F3BBBC",
"l. c #F9B9BA",
"z. c #F9B6B7",
"x. c #AAC689",
"c. c #B3C98C",
"v. c #ADD881",
"b. c #B3D28F",
"n. c #AAC396",
"m. c #BBCC93",
"M. c #B5CB98",
"N. c #B4D394",
"B. c #BAD89E",
"V. c #B4C4A6",
"C. c #B9C5A9",
"Z. c #BCD3AA",
"A. c #B9D1A4",
"S. c #BFC0B7",
"D. c #C0CF98",
"F. c #C4D29D",
"G. c #F6DB89",
"H. c #F6CF94",
"J. c #F9E48C",
"K. c #FCED91",
"L. c #C5D4A2",
"P. c #C1D1AB",
"I. c #C8C5BF",
"U. c #C6C8BC",
"Y. c #C3D4B3",
"T. c #C7D9B8",
"R. c #CAD4B3",
"E. c #F2C1B1",
"W. c #F8F0AF",
"Q. c #FCE1B2",
"!. c #CECBC7",
"~. c #CBD2C2",
"^. c #CFDCC0",
"/. c #D4D9C9",
"(. c #DCDAD5",
"). c #D7D8D0",
"_. c #D0CECA",
"`. c #EBC1C2",
"'. c #E9CBCB",
"]. c #F5CBCB",
"[. c #F6C7C7",
"{. c #FACFD0",
"}. c #EBD4D4",
"|. c #E1DDDA",
" X c #ECDCDB",
".X c #E8D5D5",
"XX c #F3D3D3",
"oX c #F4DCDB",
"OX c #F8DCDC",
"+X c #F9D7D7",
"@X c #F9D8C5",
"#X c #DCE2CE",
"$X c #FBF2C8",
"%X c #E3E3DC",
"&X c #E6E1DC",
"*X c #F2E0DF",
"=X c #FAFFDF",
"-X c #EEDFE2",
";X c #F7DFE0",
":X c #E5E2E1",
">X c #ECE5E3",
",X c #ECECE5",
"<X c #EEEBEA",
"1X c #E9E6E6",
"2X c #F5E4E4",
"3X c #F4E9E7",
"4X c #F3EDEC",
"5X c #F8EDED",
"6X c #F8E0E1",
"7X c #EFF0E5",
"8X c #F1F1E7",
"9X c #F3F1ED",
"0X c #F8F1EE",
"qX c #F4EEF1",
"wX c #F6F4F3",
"eX c #F8F6F6",
"rX c #F9F6F5",
"tX c #F9F8F7",
"yX c #F9F7F8",
"uX c #FBFAFB",
"iX c #F1FDF9",
/* pixels */
"                                                                                                                                ",
"                                                                                                                                ",
"                                                                                                                                ",
"                                                                                                                                ",
"                                                                                                                                ",
"                                                                                                                                ",
"                                                                                                                                ",
"                                                                                                                                ",
"                                                                                                                                ",
"                                                                                                                                ",
"                                                                                                                                ",
"                                                                                                                                ",
"                                                                                                                                ",
"                                                                                >.      0.                                      ",
"                                                                          wX4XuX0.3   w.U                                       ",
"                                                                      eXeXwX9XuXS.* U 2 U                                       ",
"                                                              eXwXeXeXeXqXeXwXyX.X, 2 = U.                                      ",
"                                                            eXwXqXqXqXwXqXwXeXeXtX>.: $ 5.                                      ",
"                                              eXqX        yXeXeXyXqXwXwXeXwXqXqXuX|.: , = P /.                                  ",
"                                        wXwXwXwXeXqX<XqXyXyXyXeXyXwXqXyXqXeXiXwXwX(.M P ' ^ Q { 4.x.4.2.V.                      ",
"                                    wXwX9X9XwXwXwXwX1XqXyXyXyXwXwXeXeXeXeXwXeXqXrXU.Z T ^ O.O.~ ~ ] O.+.%.x.b.N.N.N.A.          ",
"                                  wXwX9X9XwXeXeXwXeXwX1XeXyXwX2X3XqXqXeXwXwXqX<X4X/.Z K ~ #./ / / ] #.O.*.=.=.=.*.$.#.]         ",
"                                  rXwXwXwXwXeXeXeXwXwX-X5XyX0X;X2XwX4XqXeXqX4X1XqX6.& Z ! { { { ' ! ! / #.$.=.*.+.+.b.          ",
"                                9XrXwXwXwXwXwXeXeXeXqX>X-XyX;X{.;X;X;X3X4X4X<X1X>X0.w.T.|.:X:X%X(.} K ! / ' +.+./ T.            ",
"                              4XrX9XrXrXiXeXeXwX4XwX0X3X}.wXOXz.{.[.l.;X+X;X1X-X8XyXtXeX9X<X<X8X0X/.E T ' | [ n.Z.              ",
"                              4X9XiXrXrXwXwXwXqX5X5X4X2Xk.2X+Xy.y.y.s.l.d.XX1XwXwX9X8X<X9X8X9X8X8X<X6.F Y S )                   ",
"                              4XrX9X9XiXwXeXeX4X2X6X6X+Xr.d.+Xy.z.X.:.:.r.-XqXwX8XwX9X9X9XwXwX9X8X,XV.Z E 1.                    ",
"                                9XrX9XrXeXyXwXwX2XXXl.s.c l k.@X0Xu.h h f.iX4X<X9X9XwXwXwXiXwXtX8X>X) & (                       ",
"                                wX9XwXwXwXiXyXqX2XoXy.c s 0 z $XW.j.s m 2XoX-X2X4XwXwXtXyXyXeX9X,X>X0.<.C.                      ",
"                            ^.Y.T.<X4X4XqXwXwXiX*X].s.g s 8 p Q.W.H.s z.j.d.].2X5XwXeXuXuXtX9X,X,X>X(.                          ",
"                  L.F.F.D.m.x.R.&XwXyXeXqXwXqX<X*X].u.h a 8 p J.J.G.m c l n j.oX2XwXuXuXuXrX8X8X,X7X:X                          ",
"            F.F.F.F.L.L.L.D.T.uXuXuXuXuXuXyXwX<X<X|.`.v s 8 6 ;.G.J.x 0 s g u.[.6X4XwXtXuXwX8X7X7X>X                            ",
"        c.c.F.F.D.D.D.m.m.x.#XuXwXuXuXuXyXyXiXwXqXqX-X-Xg.t.f o.K.J.j 0 a h n z.+X2X9XtXtXwX8X,X:X(.                            ",
"              c. .&. .8.W R %XuXiXuXuXuXuXyXwX9X4X2X}.j.i.x d j X...w a a f b j.oX2X0XeXtX9X<X%X(.                              ",
"              m.m.^.P.W T W ,XuXtXtXyXyXyXyXwX9X<X>X'.t.c d r 5 7 6 5 i b v r.a.XX2X9XtXtXrX8X,X:X                              ",
"                      M. .} 8XyXtXtXyXyXyXyXwXwX1X}.g.a.:.l r e 9 9 9 t p.+Xk.`.XX5XrXrXeXrX9X7X%X                              ",
"                          1XeXyXwXwXwXwXwXeXwX<X3X.X'.k.t.v i k i 0 r d i `.wXqX9X9XeXrXrX9X8X8X                                ",
"                            wXyXwX9X4X4X9XwX9X9XqX<X1X}.`.t.t.h.v d f l i.i.'.1XwX9X9X9X8X9XwX>X                                ",
"                              yXwX0XwXwXwXeXeXwX4X<X<X1X|.'.(.E.t.b r.u.a.[.}.(.:X4X4X<X8X(.1.w.                                ",
"                              wXeXeXeXwXwX4X4X4XwXqXqX1X|.-X1Xg.`.f.d.[.k.XX3X4X>X:X:X<X,X).C M 2.                              ",
"                                wXeXwXqX4XqXqXwXwXrX4X>X:X4X*XXX X X].XXXX+X3XwX9X,X<XwX5XqX0.M S H                             ",
"                                9XeXuXyXqXwXeXwXqXqX9X1X4XwX<X3X3X9XwX>X*X9X9XeXwX9X4XwX0XrX6.D ! Q 3.                          ",
"                                  %Xw.|.yXeXwX4X5XwX<X-XrXrX4XrXwX4XwX9X4XwXtXtXeXwXwXwXyXw.M J Q Q [                           ",
"                                  I H I I.uXuXrXyXeX4X4X9XrXrXrXtXeXwXeXwXeXwXtXwX9XeXeX( & < J Q Q / 4.                        ",
"                                G ( 1.( C 5.w.!._.!.I.1XwXwXeXwXwXrXeXrXwXwXwXwXuXuX8X<.& M B D Y ~ / +.4.                      ",
"                                2.7.6.( C % + + O . . !.uX5XwXwXrXwXeXwXwXwXuXtX).9.> % N Z Z J E ! #.O.%.n.                    ",
"                              T.7.n.1.P < = * + o + . ,.3X4XqXwX<X4X4X9X9XwXe.3 # + - N M Z J J Q Q ~ O.$.N.                    ",
"                              ( 8.8._ H < > = @ @ # @ . 4 %X                ,.X = = > > Z J K K Q ! ~ @.=.=.A.                  ",
"                              7.2.3.) H C > + ; + o * 5.                      G 1 ; > < V J Q Q Q ~ ' @.*.v.*.T.                ",
"                              ) 7._ P - , 3 ,.                                    e.; < B D K Q Q ! 4.| %.*.v.*.                ",
"                            ~.2._ B 3 5.                                                I 1.3.F [ R | 4.+.+.$.$.x.              ",
"                            0.P G                                                             C.    C.  A.n.M.+.O.Z.            ",
"                            <.                                                                                  Z.Z.            ",
"                                                                                                                                ",
"                                                                                                                                ",
"                                                                                                                                ",
"                                                                                                                                ",
"                                                                                                                                ",
"                                                                                                                                ",
"                                                                                                                                ",
"                                                                                                                                ",
"                                                                                                                                ",
"                                                                                                                                ",
"                                                                                                                                "
};
