/* XPM */
static char *d2a690a8612a44ef8e348dbec1a2a079lcDhZUkJPKm1Ugk9[] = {
/* columns rows colors chars-per-pixel */
"64 64 204 2 ",
"   c None",
".  c #1A1A1D",
"X  c #262019",
"o  c #2F2721",
"O  c #3A3735",
"+  c #3F3931",
"@  c #423626",
"#  c #473F38",
"$  c #5D492E",
"%  c #4C4237",
"&  c #5D4B35",
"*  c #544639",
"=  c #5A4D3D",
"-  c #544638",
";  c #644E2F",
":  c #6F542F",
">  c #634F33",
",  c #665235",
"<  c #6C5332",
"1  c #64533C",
"2  c #6A563B",
"3  c #6E593D",
"4  c #725734",
"5  c #745936",
"6  c #795A35",
"7  c #735C3D",
"8  c #7B5F3C",
"9  c #7E613D",
"0  c #5C5244",
"q  c #5F5A52",
"w  c #645745",
"e  c #675842",
"r  c #6D5C43",
"t  c #6D5E49",
"y  c #685740",
"u  c #735E42",
"i  c #785F40",
"p  c #655C55",
"a  c #665E56",
"s  c #6D6045",
"d  c #736145",
"f  c #7C6344",
"g  c #73634C",
"h  c #7C664A",
"j  c #7C694E",
"k  c #6E6356",
"l  c #686259",
"z  c #746553",
"x  c #766955",
"c  c #7D6B53",
"v  c #756B5D",
"b  c #7B6E5C",
"n  c #7F745F",
"m  c #6D6961",
"M  c #786E68",
"N  c #7C746D",
"B  c #797167",
"V  c #7C7875",
"C  c #82633F",
"Z  c #826543",
"A  c #8B6B45",
"S  c #836A4B",
"D  c #896E4D",
"F  c #846746",
"G  c #906F4A",
"H  c #8B724F",
"J  c #93724E",
"K  c #846E53",
"L  c #8A6F50",
"P  c #856F5B",
"I  c #857154",
"U  c #8B7254",
"Y  c #85735C",
"T  c #8B745D",
"R  c #8D785D",
"E  c #927654",
"W  c #9B7954",
"Q  c #947B5D",
"!  c #9B7D5B",
"~  c #927858",
"^  c #837563",
"/  c #8D7662",
"(  c #877862",
")  c #8D7B65",
"_  c #8C7D6A",
"`  c #847669",
"'  c #947C64",
"]  c #9B7E64",
"[  c #967D69",
"{  c #997E6B",
"}  c #847D73",
"|  c #887E75",
" . c #947F72",
".. c #8B806F",
"X. c #958167",
"o. c #9B8364",
"O. c #95826B",
"+. c #9C846B",
"@. c #9D886C",
"#. c #8C8173",
"$. c #87827B",
"%. c #948473",
"&. c #9B8572",
"*. c #9D8A74",
"=. c #948A7B",
"-. c #9C8B79",
";. c #92877A",
":. c #9F907B",
">. c #A38665",
",. c #A98663",
"<. c #A3856B",
"1. c #A48B6E",
"2. c #AB8C6C",
"3. c #AB8B67",
"4. c #B48D6A",
"5. c #AF906D",
"6. c #B6906B",
"7. c #A28672",
"8. c #A48C74",
"9. c #AB8D75",
"0. c #A48C7A",
"q. c #AC8F79",
"w. c #B28E75",
"e. c #A79275",
"r. c #AC9274",
"t. c #A6937D",
"y. c #AC937C",
"u. c #AD997F",
"i. c #B39475",
"p. c #B99574",
"a. c #B59975",
"s. c #BA9977",
"d. c #B4957B",
"f. c #BA967C",
"g. c #B49B7D",
"h. c #BA9B7B",
"j. c #BDA17C",
"k. c #C69D74",
"l. c #C29C7E",
"z. c #CDA67E",
"x. c #C4A37F",
"c. c #978F84",
"v. c #959187",
"b. c #A39384",
"n. c #AE9485",
"m. c #AE9C89",
"M. c #A79985",
"N. c #B29682",
"B. c #B49A83",
"V. c #BC9C84",
"C. c #BB9D89",
"Z. c #B19D8B",
"A. c #A79D95",
"S. c #BA9F90",
"D. c #AFA38C",
"F. c #BCA282",
"G. c #B1A28D",
"H. c #BDA28C",
"J. c #BEA98D",
"K. c #B2A086",
"L. c #A6A09B",
"P. c #BEAB97",
"I. c #B4ABA4",
"U. c #BAB0A6",
"Y. c #C39E82",
"T. c #C99F80",
"R. c #C3A383",
"E. c #CAA386",
"W. c #C2A886",
"Q. c #C4A38B",
"!. c #CBA58C",
"~. c #C5AB8B",
"^. c #CCA98D",
"/. c #C9AB87",
"(. c #D0A787",
"). c #D1A68B",
"_. c #D2AA8C",
"`. c #D7AE83",
"'. c #CEB18D",
"]. c #C4A591",
"[. c #C9A691",
"{. c #C5AB92",
"}. c #CDAB93",
"|. c #D3AC92",
" X c #D8AE93",
".X c #C5B195",
"XX c #C4B39B",
"oX c #CEB598",
"OX c #CBB99E",
"+X c #CCB596",
"@X c #D5B195",
"#X c #DBB194",
"$X c #D5B49B",
"%X c #DDB599",
"&X c #D4BB99",
"*X c #C9B8A9",
"=X c #D7BBA2",
"-X c #C6BDB7",
";X c #DCC09B",
":X c #DDC9AE",
">X c #D9C0A2",
",X c #E2CCAE",
"<X c #E6D5BB",
"1X c #EDDBC1",
/* pixels */
"                                                                                                                                ",
"                                                                                                                                ",
"                                                                                                                                ",
"                                                                                                                                ",
"                                                              *X*X*X-X-X-X                                                      ",
"                                                        P.Z.n.Z.b.N p N A.L.V                                                   ",
"                                                      =.-.-.%.a O . . O V U.I.                                                  ",
"                                                    % o # ` 0.t.#.p q N |  .` M                                                 ",
"                                                    * X + =.B.t.b.c.$.M p - @ %                                                 ",
"                                                      0 w *.1.' ^ z 0 * - &                                                     ",
"                                                      ) r R S d 1 1 1 y c                                                       ",
"                                                      &.h U S s 1 0 p } M.                                                      ",
"                                                      -.R R K x v l v v.                                                        ",
"                                                      G.u.u.*.X.) ( n ..XX                                                      ",
"                                                      P.XXP.D.=.` ( Y c e.*X                                                    ",
"                                                      u.J.J.K.=.z z ` z Y K.XX                                                  ",
"                                                    m.u.B.t.*...k x ..x X.u.*X                                                  ",
"                                                    b.*.*.-.:.O.x s 2 x X.1..X<X                                                ",
"                                                    %.' O.@.*...x g 3 s c X.u.:X                                                ",
"                                                    _ ) O.O.+.) n g e 1 j X.j.+X                                                ",
"                                                  -._ &.8.8.e.u.D.D.n s g R r.~.<X                                              ",
"                                                  -._ 8.d.i.r.V.J.P.J.=.b c Q j.,X                                              ",
"                                                    b ' 1.,.4.6.a./.'.J.u.^ R e.&X1X                                            ",
"                                                    ` / >.E H W ,.6.x.j.F.M.X.y.J.,X<X                                          ",
"                                                    #.O.>.>.K f 9 9 W p.e.y.X.r.F.OX=X                                          ",
"                                                    ;.*.@.o.o.' I r S 5.d.+.j >.F.~.g.J.                                        ",
"                                                    =.) X.+.o.X.R j d Q e.+.> U i.i.>.h.                                        ",
"                                                    #._ @.1.o.@.Q j 2 j &.' $ S 1.@.' g.                                        ",
"                                                    =.` &.1.e.1.o.R h 2 l b r S 1.e.Q 7.                                        ",
"                                                    #.` X.8.e.1.@.I 2 & = l x Y Q o.R R                                         ",
"                                                  ;.m b R +.o.@.X.U g 2 e g R ' j o.k k                                         ",
"                                                  -.` b Y R ] 1.@.I s w 1 s Y R h i.                                            ",
"                                                  -.B b Y R >.i.5.~ j s 0 s g j o.                                              ",
"                                                  %.v _ / ' >.5.3.o.j g z g s H a.                                              ",
"                                                  %.^ _ ..+.2.2.3.,.U g s s f H j.                                              ",
"                                                  O.b b O.+.o.o.5.j.X.d g s f D F.                                              ",
"                                                  +.g z c P T o.>.x.r.I f 2 , S ~.                                              ",
"                                                  t.Y s g I U @.o.j.W.o.D u $ 9 W.                                              ",
"                                                  &.j r s c I @.o.j.;Xa.I 9 , 7 a.                                              ",
"                                                  X.2 1 9 j j o.e.j.;XW.~ 9 2 h i.                                              ",
"                                                  ' , , u u h ~ e.F.'.W.D 7 < 7 >.=X                                            ",
"                                                  >.d r u f S ~ X.1.j.j.S 5 < 7 ! oX                                            ",
"                                                  d.S f 7 u S D U o.a.! 7 > ; > o.oX                                            ",
"                                                  F.E f i F F S H H ~ 2 7 2 3 h >.                                              ",
"                                                  i.A 9 Z i 7 8 S A 7 , 3 f D ~                                                 ",
"                                                  ! 5 9 8 4 ; : 9 9 , u S S U                                                   ",
"                                                  W 8 C A 8 < 4 9 7 7 7 F ~                                                     ",
"                                                  G C Z G 6 4 6 f h D U                                                         ",
"                                                o.C C 6 J J W ! S ! +.                                                          ",
"                                                W A 6 :   3.z.z.>.>.W.                                                          ",
"                                                J C :       `.`.k.s.i./.                                                        ",
"                                              W C 6 A       p.p.] h.d.e.W.                                                      ",
"                                            6.6.k.l.!.|.@X#X).l.2.h.!.d.7.Y.[.                                                  ",
"                                          _. X%X#X%X%X@X|.|. X X`.R.W.E.T.T.|.^.                                                ",
"                                  $X$X@X[.[.Q.(.l.i.p.w.9.9.9.f.E.(.).!.).).|.T.).|.|.                                          ",
"                              @X}.{.|.C.N.V.V.Y.T.d.7.7.V.V.Y.!._.).!.Q.|. X X).[.#X|.V.                                        ",
"                          V.|.}.Q.|.).7.q.Y.Y.f.V.Y.V.C.!.|.|.|.!.E.H.B.Y.!.@X|. X X X].].%X                                    ",
"                      Q.0.N.Y.^._.!.Q.N.B.h.d.h.d.d.N.V.Q.[.H.Z.C.C.N.i.r.p.R.|.).|.|.[.n.S.}.                                  ",
"                  e.R.9.7.l.f.s.f.Y.Y.Z.B.n.t.B.d.1.r.C.Y.].%X%X}.Q.R.R.B.1.r.E.|.|.C.].S.[.[.[.                                ",
"                y.9.1.+.7.3.w.Y.q.7.0.Y.f.8.8.0.h.Q.B.N.f.E.E.E.).l.1.9.d.h.h.V.|. X . .0.[.}.}.                                ",
"                { ] ~ ' { <.<.w.7.d.q.7.&./ 7.7.V.!.Y.d.y.!.V.f.T.h.p.Y.F.h.V.9.Y.q.{  .-.C.}.].+.                              ",
"              / P ' / <.<.3.{ L ~ 2.[ / [ r u <.f.f.d.w.7.].N.q.B.<.q.V.9.<.7.{ { {  . .n.].N.<.<.B.                            ",
"            7.[ / <.8.Q.|.f.9.{ h.|.V.f.o.d P 7.N.{ T / / T / ' <.{ { ' T T T P P { n.n.S.[.q.[ 7.q.H.                          ",
"            q.{ { +.V.}.|.N.!.n.}.$Xq.' b c 7.n.7.7.[ [ { [ 8./ P P h u P P z / { n.Y.C.].Q.7.9.9.V.C.                          "
};
