/* XPM */
static char *_aedd0401f294eb8bcb398667dbb24947Dtp3wtnGV6N2Fge[] = {
/* columns rows colors chars-per-pixel */
"64 64 236 2 ",
"   c None",
".  c #3C5E2A",
"X  c #385C23",
"o  c #3D6326",
"O  c #3E642A",
"+  c #415D2B",
"@  c #42632C",
"#  c #476A2A",
"$  c #506E2A",
"%  c #58752D",
"&  c #4D6A3B",
"*  c #476834",
"=  c #526E34",
"-  c #566E3B",
";  c #4E763A",
":  c #4B7638",
">  c #537034",
",  c #5A743C",
"<  c #56753A",
"1  c #4D7221",
"2  c #787A3E",
"3  c #4D701A",
"4  c #5B7443",
"5  c #5D7B42",
"6  c #577548",
"7  c #567D59",
"8  c #546946",
"9  c #627B44",
"0  c #687D49",
"q  c #757A49",
"w  c #6B7E52",
"e  c #7E7C63",
"r  c #B02B36",
"t  c #AE3743",
"y  c #B73948",
"u  c #B63E52",
"i  c #C23C4C",
"p  c #B34649",
"a  c #BB4857",
"s  c #B65253",
"d  c #897C5A",
"f  c #BF675C",
"g  c #917A65",
"h  c #A5766E",
"j  c #C84858",
"k  c #C95552",
"l  c #C86457",
"z  c #C37558",
"x  c #C75667",
"c  c #D05365",
"v  c #CE5D72",
"b  c #C65D72",
"n  c #CF5068",
"m  c #C86667",
"M  c #C56C7D",
"N  c #C9687A",
"B  c #D2647B",
"V  c #D56478",
"C  c #CB747A",
"Z  c #CD7064",
"A  c #4F803B",
"S  c #5B8549",
"D  c #578348",
"F  c #58815E",
"G  c #65824A",
"H  c #6B854C",
"J  c #6C8A4C",
"K  c #688342",
"L  c #74894D",
"P  c #6C8354",
"I  c #6E8B51",
"U  c #618B5C",
"Y  c #688858",
"T  c #738B54",
"R  c #728D5A",
"E  c #76895C",
"W  c #7C945B",
"Q  c #799558",
"!  c #6B945C",
"~  c #668B63",
"^  c #778B66",
"/  c #6A9263",
"(  c #7C9463",
")  c #7E9B61",
"_  c #779668",
"`  c #7CA36D",
"'  c #83965B",
"]  c #828A41",
"[  c #82A05B",
"{  c #878A68",
"}  c #839C64",
"|  c #859A6A",
" . c #8A9778",
".. c #96997B",
"X. c #908D71",
"o. c #AB857B",
"O. c #89A465",
"+. c #89A469",
"@. c #87A367",
"#. c #9EA168",
"$. c #8BA377",
"%. c #93A677",
"&. c #A4A17F",
"*. c #DA9876",
"=. c #D48A6E",
"-. c #DBAC67",
";. c #E5B071",
":. c #D4875F",
">. c #EEC67B",
",. c #CC6F83",
"<. c #D56D83",
"1. c #CB7787",
"2. c #D3748A",
"3. c #D27B8D",
"4. c #D87489",
"5. c #D37B92",
"6. c #DC7C94",
"7. c #DA7F98",
"8. c #E17B91",
"9. c #999588",
"0. c #AD938D",
"q. c #9BA888",
"w. c #9FAA92",
"e. c #A8AB95",
"r. c #B5AA9C",
"t. c #ACB39A",
"y. c #A6B697",
"u. c #B9AAA5",
"i. c #B8B6A7",
"p. c #B6BCAB",
"a. c #D58689",
"s. c #D8998B",
"d. c #CB8A9A",
"f. c #D48395",
"g. c #D4859C",
"h. c #DB839B",
"j. c #D58B9C",
"k. c #DC8A9C",
"l. c #DA8395",
"z. c #C69397",
"x. c #D69695",
"c. c #D0AB97",
"v. c #EABA90",
"b. c #E3A896",
"n. c #CD8DA2",
"m. c #D48BA3",
"M. c #DC8CA3",
"N. c #D987A1",
"B. c #CB9AA9",
"V. c #D493A3",
"C. c #DC92A5",
"Z. c #D494AB",
"A. c #DC95AA",
"S. c #DB9BAD",
"D. c #D49CAC",
"F. c #DC9CB3",
"G. c #DB9CB5",
"H. c #E38DA5",
"J. c #E195AC",
"K. c #E19CAA",
"L. c #E29BB3",
"P. c #E89BB1",
"I. c #CAA6A9",
"U. c #D8A5AA",
"Y. c #CDACB3",
"T. c #DBA2B5",
"R. c #DDA4BA",
"E. c #DCAABC",
"W. c #D7A7B5",
"Q. c #C6B6B5",
"!. c #D5B7BB",
"~. c #C6B0A9",
"^. c #E7B2AD",
"/. c #E4A4BB",
"(. c #E3ABBE",
"). c #E6A5B9",
"_. c #E7B5B5",
"`. c #C6C5B8",
"'. c #F1CA93",
"]. c #DDADC3",
"[. c #DBAFC5",
"{. c #DDB4C6",
"}. c #DDB9C8",
"|. c #DEB8D0",
" X c #E2AEC3",
".X c #E8A7C2",
"XX c #E2B3C5",
"oX c #E3B5CB",
"OX c #EAB4CA",
"+X c #E2BCCC",
"@X c #EABBCE",
"#X c #E7B8C5",
"$X c #E4BCD2",
"%X c #EABCD1",
"&X c #E4B8D3",
"*X c #DCC4CB",
"=X c #DAC8C8",
"-X c #D3D6C9",
";X c #DECAD3",
":X c #DAD5D4",
">X c #CDCBC3",
",X c #E3C2CE",
"<X c #ECC5CC",
"1X c #E4C4D3",
"2X c #EAC4D5",
"3X c #E3CAD5",
"4X c #EACBD6",
"5X c #E5C4D8",
"6X c #EBC5DA",
"7X c #E5CCDA",
"8X c #EBCCDC",
"9X c #F1CBDD",
"0X c #F1CBD8",
"qX c #E5D2DB",
"wX c #ECD2DD",
"eX c #E8D7D8",
"rX c #F2D3DE",
"tX c #F0D8DD",
"yX c #DFE5D7",
"uX c #ECCDE1",
"iX c #F2CCE1",
"pX c #ECD4E3",
"aX c #EDDAE4",
"sX c #EEDCEA",
"dX c #E8D8E3",
"fX c #F1D5E3",
"gX c #F3DAE5",
"hX c #F2DDEA",
"jX c #F0D4ED",
"kX c #EEE1EA",
"lX c #EEECEE",
"zX c #F2E2ED",
"xX c #F3E6ED",
"cX c #EFEEF1",
"vX c #F2EEF1",
"bX c #E8EBDE",
/* pixels */
"                                                                                                                                ",
"                                                                                                                                ",
"                                                                                                                                ",
"                                                                                    <X                                          ",
"                                                                                  z.x.~.                                        ",
"                                                                                  g h o.                                        ",
"                                                                                2 0 q d                                         ",
"                                                                                $ % %                                           ",
"                                                                                % 3 %                                           ",
"                                                      xXhXxXxX                |   K                                             ",
"                                                    sXhXgXgXgX4XfXwX+X1X      L #.            c.                                ",
"                                                  wX9XfXrXfXkX6XrXwX2XgXpXwX  q W P L '   q g o.U.                              ",
"                                        zXxXzXxXsXwX0X6X2X2XfX6X8X4XrXgX9XwX  ' 0 9 K   % % 2 h                                 ",
"                                    3X4XfXgXkXzXhX8X0X@XXXE.#X@X1X,XtXwXwX              $ 1 , q                                 ",
"                                    rX2X0X9XfXpXtXfX2XOX).A.S.(.@X4XgXaX                  %                                     ",
"                                    aX9X0X6X8X8X2X9X0X).M.3.3.V.+X4XfX            L L '                                         ",
"                      $.} ' W W ) %.eXpXwX6X2X2XOXE.@X^.a.a m C.eXfXwX                                                          ",
"                      %.O.O.O.[ L | tXgXpX8X%XXX(.M.A.^.=.t ,.<XxXgXwX      #.                                                  ",
"                        } [ O.+.'  .=XgXwX#X).J.f.4.V a.x.s S.tXgXeX      ' '                                                   ",
"                          T W W ) e.*X,X@XT.f.B v c i p b.s.<XkXtXr.E P ^ ( | _ _ 9.                                            ",
"                          H H J %.eXtX6X@X#XK.b a y r r m =._.tX*XX.! ( _ +.| ) q.`.                                            ",
"                          P 9 T -XgXrX0X6X2X#XK.B y r x s l c.0Xu.^ Y R ( ( R w.yXxX,XtXjXdX    8XpXsXzXzXzXlX                  ",
"                          P < 5 i.3X2X@X%X+X#XT.k.a a x.a.h ).=XX.P P w w 6  .:XvXgX,X1XpXuXuXuXuXuXpXhXzXzXzXvX                ",
"                            , = , ..=X2X<X<X#XXXT.1.M g.2.h 0.^ 8 6 6 6 6 _ -XkXzXhX2XXXoXuXuXiXuXuXfXhXhXzXzXvX                ",
"                              = $ > ^ =X8X6X2X#Xr.X.      g 8 & 8 8 * & e >XcXlXsXjX9X#X].2XuXuXuX6XrXfXaXzXzXlX                ",
"                                  9 , .. .e.#XI.e               0   4  .-XcXlXkXjX8X8X@X(.oX$XiX%X@X2X6XrXfXaXzX                ",
"                                          Q.+XY.                      bXcXcXlXkXhXjX6X%X(.L.%X%XOXL.).@X9XpXsXxX                ",
"                                          ;X|.E.7XaX                    cXcXkXzXzXjX6XOX).J..X.XH.H.K.XX8XwXaXeX                ",
"                              qX4X|.|.3X|.,X}.W.1XqX              ]       lXzXzXhXhX9XP.H.k.P.H.<.8.H.OXhXaXfXaX                ",
"                          qX7X7X1X$X&X|.|.|.E.G.1X7X7X            2       zXzXhXgXiXOXH.V C _.l.n 4.J.%XuXgXhXsXkX              ",
"          G 0 5 G I R ( `.qX7X7X3X+XoXoX|.}.G.W.,X1X;X                    zXzXhXgX@XH.l.V c '.s.c 4.P.OXiXjXsXsXsXsX            ",
"      w H I R H G T W ( i.7X3X3X1X|.}.oX}.].G.R.+X+X3X        %. .| '     iXjXjX9X).l.V c k '.;.l V 8.J.2XpXaXsXsXsX            ",
"      0 K J ( ) ' @.+.| t.3X1X+XXXoX{.oXoX].S.E.XX+X7X3Xe.' T Q ' @.O.%.  $X@X%X,X(.k.v c l -.>.Z n <.H.%XjXhXhXsXsX            ",
"        5 H ) W ) %.%.%.e.=X,X@X XG.G. X].G.Z.R.{.+X7XqX=X} T @.+.O.O.            I.).H.B c :.*.Z V 8.).2XaXhXhXhXkX            ",
"        5 5 I ) @.@.+.i.!.!.}.!.S.M.g.F.].A.m.G.E.1X7XqX;Xq.' @.O.Q '             c.L.J.%X/.l.a.7.8.P.%XrXhXsXzXkX              ",
"          9 G Q ) @.%.Q.3X=X}.Y.V.5.2.2.A.m.7.M.T.+X7X3X3Xr.( Q T J '             c.(.F.%XjXiX9XiXiXOX%X8XpXfXaX                ",
"            G I ( q.p.3X;X;X5X!.D.5.B n 4.j.4.2.m.oX+X7X2Xr.E K K E             #.        jXjXhXhXjX8X1X1X$X+X~.| }             ",
"              T  .`.3X1X5X;X5X}.F.l.B j Z ^.m v 6.S.XX5XoX9.H 9 X.Y.1X}.oX{.W.Y.&.        qXhXhXzXhXaX8X2X%XOXq.Q ' @.| $.      ",
"                u.;X3X3X3X5X,X/.M.8.v j Z v.l j v 2.F.oXT.X.w { Y.XX%XoX XW.Z.B.Y.        ^ `.hXhXhXhXgXfX2X~...O.+.O.+.%.      ",
"                  3X5X3X3X1X+XG.2.m j j =.>.l y n <.d.z.Z.g.0.D.L.{.oX].T.Z.d.V.n.W.      , w p.zXzXqX:X>Xe.{ ) ) W '           ",
"                    uX7X7X7X+XT.7.v j k -.-.l j B 5.h g n.5..X/.Z.G.(.(.G.Z.n.d.g.d.      $ $ w e.q.{ ( ) R J J I J Q           ",
"                    ;X3X5X5X$X{.A.3.V b Z z m l.F.G.0.h Z.N.N.h N M ,.,.d.G.oXoX].[.      $ $ = , < < G P J J K K H             ",
"                      Y.{.{.{.].E.R.(.R.S.D..X+X|.oXG.d.,.u t p f f u a 3.R.$XuXuXpX      = = > = > > - 5 5 , < ,               ",
"                  _ _ e.T.].].{.+X3X7X7X5X5XuXpXuX6XG.,.u y t f ;.:.p a 4.F.$XuXpXpXpX      4 - - = = > > > = > 5               ",
"                  _ ` q.~.!.*X=X3X;X;X;X:XsXzXjXpXpX X5.b a y *.>.f a x <.A.%XuXuXqXuXp.          > = , , - = 4                 ",
"                / ! ` $.$.y.y.y.t.p.t.w.-XvXsXaXpXwX$X.X2.x l v.*.p x 6.l./.1X6X7XuXpX|.                                        ",
"                U U $.t.y.y.y.y.p.p.i.i.=X,X7XpXjXdX8X].5.,.M ^.C a b h./.&X8X5X5X;X$Xp.7                                       ",
"                U / w.1X,X1X=X3X1X8XwXeX4X4X#X8XpXuX$XG.C.7.5.m.f b ,.g.E.5XuXuXuX7X=X .8                                       ",
"              / ~ ~ 9.=X7X4X4X3X*X1X4X7X4X<Xz.#XwX$X{..XG.m.N.L.g.,.2.g.0.Y.1XuX:Xt. .Y ; &                                     ",
"              ~ ~ / | i.1X+X}.}.{.T.d.x.5.=.*.E.3X$X&XoXG.m.F. X.Xj.g.A. XQ.!.*Xi.I U D ; *                                     ",
"              ~ ~ ~ U 9.Y.,X,X!.E.f.b a r m b.U.pXuX@XT.Z.G.[.&XoXG.S./.%X5XQ.r.r.G S D ; O .                                   ",
"              _ ~ U F 7 t.qXoX#XR.g.,.j m s.m f.8XuXE.Z.G.].&X&X&XoXXXOX2XiX*X .! / D S A O o                                   ",
"                    F F p.@X$X4X{.V.g.a.x.U.B j ,./.G.XX+X|.&X&X&X&X&X2X7XuX3X^ ; S D ; ; O o                                   ",
"                          8XwX3X{.T.F.T.E.G.2.v x f. X6X1X$X5X&X&X&X2X5XpXaX;XY : * ; D < O X                                   ",
"                          aXwX1X@XXXXXXX<XR.A.g.,.f G.5XXX}.+X6X$X$X8X8XdXdXqX6 O o O D ; O .                                   ",
"                            qX7X3X+X+X,X3X{.].R.A.3.Z.oX}.oXXXu.9. .Q.aXaXdX      X o o # @ @                                   ",
"                              dX7X1X1X8X3X;X+X{. XS.W.{.1XXX@X9.O O                   @ @ * +                                   ",
"                                  3X3XqX8X5X+X|.1X1X}.{.2X1XoX .. O                                                             ",
"                                      dXdXqX,X+X1X4X8X{.,XwX4X .X .                                                             ",
"                                      dXdX8X+X@X4X7XpX9.{ q.t.6 O                                                               ",
"                                          eXoX+X3X      + . * *                                                                 ",
"                                            }.,X          . @                                                                   ",
"                                                                                                                                ",
"                                                                                                                                "
};
