/* XPM */
static char *_a5cebd3c00d475dbd0d56bb32365b65Bw2kFGHM99TRm0ae[] = {
/* columns rows colors chars-per-pixel */
"64 64 228 2 ",
"   c black",
".  c #010101",
"X  c #020202",
"o  c gray1",
"O  c #040404",
"+  c gray2",
"@  c #060606",
"#  c #070707",
"$  c gray3",
"%  c #090909",
"&  c gray4",
"*  c #0B0B0B",
"=  c #0C0C0C",
"-  c gray5",
";  c #0E0E0E",
":  c gray6",
">  c #101010",
",  c #111111",
"<  c gray7",
"1  c #131313",
"2  c gray8",
"3  c #151515",
"4  c #161616",
"5  c gray9",
"6  c #181818",
"7  c #191919",
"8  c gray10",
"9  c #1B1B1B",
"0  c gray11",
"q  c #1D1D1D",
"w  c #1E1E1E",
"e  c gray12",
"r  c #202020",
"t  c #222222",
"y  c gray14",
"u  c #252525",
"i  c #272727",
"p  c #282828",
"a  c gray16",
"s  c #2A2A2A",
"d  c gray17",
"f  c #2D2D2D",
"g  c gray18",
"h  c #2F2F2F",
"j  c gray19",
"k  c #313131",
"l  c #323232",
"z  c gray20",
"x  c #343434",
"c  c #353535",
"v  c gray21",
"b  c #373737",
"n  c gray22",
"m  c #393939",
"M  c #3A3A3A",
"N  c gray23",
"B  c #3C3C3C",
"V  c gray24",
"C  c #3E3E3E",
"Z  c #3F3F3F",
"A  c gray25",
"S  c #414141",
"D  c gray26",
"F  c #434343",
"G  c #444444",
"H  c gray27",
"J  c #464646",
"K  c gray28",
"L  c #494949",
"P  c gray29",
"I  c #4B4B4B",
"U  c #4C4C4C",
"Y  c gray30",
"T  c #4E4E4E",
"R  c gray31",
"E  c #505050",
"W  c #515151",
"Q  c gray32",
"!  c #535353",
"~  c gray33",
"^  c #555555",
"/  c #565656",
"(  c gray34",
")  c #585858",
"_  c gray35",
"`  c #5A5A5A",
"'  c #5B5B5B",
"]  c gray36",
"[  c gray37",
"{  c #5F5F5F",
"}  c gray38",
"|  c gray39",
" . c #646464",
".. c #656565",
"X. c gray40",
"o. c #676767",
"O. c gray42",
"+. c #6C6C6C",
"@. c gray44",
"#. c #717171",
"$. c #727272",
"%. c gray45",
"&. c #747474",
"*. c gray46",
"=. c #767676",
"-. c #777777",
";. c gray47",
":. c gray48",
">. c #7B7B7B",
",. c #7C7C7C",
"<. c gray49",
"1. c #7E7E7E",
"2. c #808080",
"3. c #818181",
"4. c gray51",
"5. c #838383",
"6. c #868686",
"7. c gray53",
"8. c #888888",
"9. c #898989",
"0. c gray54",
"q. c #8B8B8B",
"w. c gray55",
"e. c #8D8D8D",
"r. c #8E8E8E",
"t. c gray56",
"y. c #909090",
"u. c #939393",
"i. c gray58",
"p. c #959595",
"a. c gray59",
"s. c #989898",
"d. c gray60",
"f. c #9A9A9A",
"g. c #9B9B9B",
"h. c #9D9D9D",
"j. c gray62",
"k. c #A0A0A0",
"l. c gray63",
"z. c #A2A2A2",
"x. c gray64",
"c. c #A4A4A4",
"v. c gray65",
"b. c #A7A7A7",
"n. c gray66",
"m. c #AAAAAA",
"M. c gray67",
"N. c #ACACAC",
"B. c gray68",
"V. c #AEAEAE",
"C. c #AFAFAF",
"Z. c gray69",
"A. c #B1B1B1",
"S. c #B2B2B2",
"D. c gray70",
"F. c gray71",
"G. c #B6B6B6",
"H. c #B7B7B7",
"J. c gray72",
"K. c #B9B9B9",
"L. c gray73",
"P. c #BBBBBB",
"I. c #BCBCBC",
"U. c gray",
"Y. c gray75",
"T. c #C0C0C0",
"R. c #C1C1C1",
"E. c gray76",
"W. c #C3C3C3",
"Q. c gray77",
"!. c #C5C5C5",
"~. c #C6C6C6",
"^. c gray78",
"/. c #C8C8C8",
"(. c gray79",
"). c #CACACA",
"_. c #CBCBCB",
"`. c gray80",
"'. c #CDCDCD",
"]. c #CECECE",
"[. c gray81",
"{. c #D0D0D0",
"}. c gray82",
"|. c #D2D2D2",
" X c LightGray",
".X c gray83",
"XX c gray84",
"oX c #D7D7D7",
"OX c #D8D8D8",
"+X c gray85",
"@X c #DADADA",
"#X c gray86",
"$X c gainsboro",
"%X c #DDDDDD",
"&X c gray87",
"*X c #DFDFDF",
"=X c gray88",
"-X c #E1E1E1",
";X c #E2E2E2",
":X c gray89",
">X c #E4E4E4",
",X c gray90",
"<X c #E6E6E6",
"1X c #E7E7E7",
"2X c gray91",
"3X c #E9E9E9",
"4X c #EAEAEA",
"5X c gray92",
"6X c #ECECEC",
"7X c gray93",
"8X c #EEEEEE",
"9X c #EFEFEF",
"0X c gray94",
"qX c #F1F1F1",
"wX c gray95",
"eX c #F3F3F3",
"rX c #F4F4F4",
"tX c gray96",
"yX c #F6F6F6",
"uX c gray97",
"iX c #F8F8F8",
"pX c #F9F9F9",
"aX c gray98",
"sX c #FBFBFB",
"dX c gray99",
"fX c #FDFDFD",
"gX c #FEFEFE",
"hX c white",
/* pixels */
"hXhXhXhXhXhXhXhXhXhXhXhXhXhXhXhXhXhXaXhXhXhXhXhXhXhXhXhXhXhXhXhXhXhXhXhXhXhXhXhXhXhXhXhXhXhXhXhXhXhXhXhXhXhXhXhXhXhXhXhXhXhXhXhX",
"hXhXhXhXhXhXhXhXhXhXhXhXhXhXhXhXhXhXhXhXhXhXhXhXhXhXhXhXhXhXhXhXhXhXhXhXhXhXhXhXhXhXhXhXhXhXhXhXhXhXhXhXhXhXhXhXhXhXhXhXhXhXhXhX",
"hXhXhXhXhXhXhXhXhXhXhXhXhXhXhXhXaXhXhXhXhXhXhXhXhXhXhXhXhXhXhXhXhXhXhXhXhXhXhXhXhXhXhXhXhXhXhXhXhXhXhXhXhXhXhXhXhXhXhXhXhXhXhXhX",
"hXhXhXhXhXhXhXhXhXhXhXhXhXhXhXhXhXhXhXhXaXhXhXaXhXhXhXhXhXhXhXhXhXhXhXhXhXhXhXhXhXhXhXhXhXhXhXhXhXhXhXhXhXhXhXhXhXhXhXhXhXhXhXhX",
"hXhXhXhXhXhXhXhXhXhXhXhXhXhXhXhXhXhXhXhXhXhXhXhXhXhXhXhXhXhXhXhXhXhXhXhXhXhXhXhXhXhXhXhXhXhXhXhXhXhXhXhXhXhXhXhXhXhXhXhXhXhXhXhX",
"hXhXhXhXhXhXhXhXhXhXhXhXhXhXhXhXhXhXhXaXhXhXhXhXhXhXhXhXhXhXhXhXhXhXhXhXhXhXhXhXhXhXhXhXhXhXhXhXhXhXhXhXhXhXhXhXhXhXhXhXhXhXhXhX",
"hXhXhXhXhXhXhXhXhXhXhXhXhXhXhXhXaXhXhXhXhXhXhXtXtXhXhXhXhXhXhXhXhXhXhXhXhXhXhXhXhXhXhXhXhXhXhXhXhXhXhXhXhXhXhXhXhXhXhXhXhXhXhXhX",
"hXhXhXhXhXhXhXhXhXhXhXhXhXhXhXhXhXhXhXhXhXhXaX4XOX4XtXhXhXhXhXhXhXhXhXhXhXhXhXhXhXhXhXhXhXhXhXhXhXhXhXhXhXhXhXhXhXhXhXhXhXhXhXhX",
"hXhXhXhXhXhXhXhXhXhXhXhXhXhXhXhXhXhXhXhXhXhXhX=.- m R w.hXhXhXhXhXhXhXhXhXhXhXhXhXhXhXhXhXhXhXhXhXhXhXhXhXhXhXhXhXhXhXhXhXhXhXhX",
"hXhXhXhXhXhXhXhXhXhXhXhXhXhXhXhXhXhXhXhXhXhXhX1.      B OXhXhXhXw.$.6.v.E.*XtXhXhXhXhXhXhXhXhXhXhXhXhXhXhXhXhXhXhXhXhXhXhXhXhXhX",
"hXhXhXhXhXhXhXhXhXhXhXhXhXhXhXhXhXhXhXhXhXhXhXw.O     v /.tXQ.h.i     O 8 g 1.tXhXhXhXhXhXhXhXhXhXhXhXhXhXhXhXhXhXhXhXhXhXhXhXhX",
"hXhXhXhXhXhXhXhXhXhXhXhXhXhXhXhXaXhXhXhXhXhXhXh.  *   8 | ` t         O     g E.hXhXhXhXhXhXhXhXhXhXhXhXhXhXhXhXhXhXhXhXhXhXhXhX",
"hXhXhXhXhXhXhXhXhXaXhXhXhXhXhXhXhXtX6X4X*XoXOXh.        *               - 2 ` oXhXhXhXhXhXhXhXhXhXhXhXhXhXhXhXhXhXhXhXhXhXhXhXhX",
"hXhXhXhXhXhXhXhXhXhXhXhXhXhXhXhXtX2.B k p 2 t <     O   *     *   * < v $.v.;XhXhXhXhXhXhXhXhXhXhXhXhXhXhXhXhXhXhXhXhXhXhXhXhXhX",
"hXhXhXhXhXhXhXhXhXhXhXhXhXhXaX*X6.i     O           *         * J =.H.4XhXhXhXaXhXhXhXhXhXhXhXhXhXhXhXhXhXhXhXhXhXhXhXhXhXhXhXhX",
"hXhXhXhXhXhXhXhXhXhXhXhXhXtXd.i -   O O     *   O   O   < D w.Y.qXhXhXhXhXhXhXhXhXhXhXhXhXhXhXhXhXhXhXhXhXhXhXhXhXhXhXhXhXhXhXhX",
"hXhXhXhXhXhXhXhXhXhXhXhXhXhXH.~ 2 *     O   *     *   I /.hXhXhXhXhXhXhXhXhXhXhXaXhXhXhXhXhXhXaXaXhXhXhXhXhXhXhXhXhXhXhXhXhXhXhX",
"hXhXhXhXhXhXhXhXhXhXhXaXhXhXhXqXL.8.I B ` =.d.=.    2 w.aXhXhXhXhXhXhXhXhXhXhXhXhXhXhXhXhXhXhXhXhXhXhXhXhXaXhXhXhXhXhXhXhXhXhXhX",
"hXhXhXhXhXhXhXhXhXhXhXhXhXhXhXhXhXhX4X4XaXhXhXv.O   D OXhXhXhXhXhXhXhXhXhXhXhXhXaXhXhXhXhXhXhXhXhXaXhXhXhXhXhXhXhXhXhXhXhXhXhXhX",
"hXhXhXhXhXhXhXhXhXhXhXhXhXhXhXtXhXhXhXhXhXhXhXw.    =.hXhXhXhXhXhXhXhXhXhXaXhXhXhXhXhXhXhXhXhXhXhXhXhXhXhXhXhXaXhXhXhXhXhXhXhXhX",
"hXhXhXhXhXhXhXhXhXhXhXhXhXhXhXhXhXhXhXhXtXhXhX>.  p Z.hXhXaXhXhXhXtX6XhXhXhXhXhXhX6X1XhXhXhXhXhXaXhXhXhXhXhXhXhXhXhXhXhXhXhXhXhX",
"hXhXhXhXhXhXhXhXhXhXhXhXhXaXhXhXhXhXhXhXhXhXqXR   X.1XhXhXhXhXaX[.8.+.w.B.L.L.Z.$.~ [ y.[.qXhXhXhXhXhXhXhXhXhXhXhXhXhXhXhXhXhXhX",
"hXhXhXhXhXhXhXhXhXhXhXhXhXhXhXhXhXhXhXhXhXhX*Xp O x.hXhXaXaX*XE.R <     * - <   -     O p | x.oXtXhXhXaXhXhXhXhXhXhXhXhXhXhXhXhX",
"hXhXhXhXhXhXhXhXhXhXhXhXhXhXhXaXhXhXhXhXhXhX/.  v oXhX/.d.O.t * O     *     * O     O O     - p 8.oXhXhXhXhXhXaXhXhXhXhXhXhXhXhX",
"hXhXhXhXhXhXhXhXhXhXhXhXhXhXhXhXhXhXhXaXhXaX$.  J O.D < O *       - *   * p.Y.B.$.q   *     O     v E.hXhXhXhXhXhXhXhXhXhXhXhXhX",
"hXhXhXhXhXhXhXhXaXhXhXhXhXaXhXhXhXhXhXhXhX/.B     < - O       k 8.X.  O =.tXhXhX1X>.O       *       X.6XhXhXhXhXhXhXhXhXhXhXhXhX",
"hXhXhXhXhXhXhXhXhXhXhXhXhXhXhXhXhXqXhXhXE.R   O           p >.Y.hX>.* ~ 1XhXhXhXhXZ.8             q $.4XhXhXhXhXhXhXhXhXhXhXhXhX",
"hXhXhXhXhXhXhXhXhXhXhXaXhXhXhXhXaXhXhXZ.2.R     O     k [ B.aXhXhXB I }.hXhXhXhXhX}.k   O O   O k Z.6XhXhXhXhXhXhXhXhXhXhXhXhXhX",
"hXhXhXhXhXhXhXhXhXhXhXhXhXhXhXhXhXhXx.[ [.[.D     * I E.tXhXhXhX}.! /.hXhXhXhXhXhX6XR   O O     X.hXhXhXhXhXhXaXhXhXhXhXhXhXhXhX",
"hXhXhXhXhXhXhXhXtXaXhXtXOXtXhXhXhX2.R m.hXhXL.q   O I ;XhXhXhXhXx.=.OXB.2.OXhXhXhXhX~     O     y.hXhXhXhXhXhXhXhXhXhXhXhXhXhXhX",
"hXhXhXhXhXhXhXhXhXhXhXE.` X.Q.qX2.t y.hXhXhXhX$.*   * d.hXhXqXtXk i m   O w.tXhXhXhXX.  O O O < [.hXhXhXhXhXaXhXhXhXhXhXhXhXhXhX",
"hXhXhXhXhXhXhXhXhXaXhXhX=.O * m * D 4XhXhXhXhX*X2 O   >.aXaXp.m *     O k L.hXhXhXhX=.*     O i *XhXhXhXhXhXhXaXhXhXhXhXhXhXhXhX",
"hXhXhXhXhXhXhXhXhXhXaXhX*XB   O   2.hXhXhXhXhXtXg O   k ` p * O   O k 6.oXhXhXhXhXhXL.    *   ~ hXhXhXhXhXhXhXhXhXhXhXhXhXhXhXhX",
"hXhXhXhXhXhXhXhXhXhXhXhXtX$.      1.hXhXhXhXhXY.8 O     2 O     B d.*XhXhXhXhXhXhXhX/.- O     $.hXhXhXhXhXhXhXhXhXhXhXhXhXhXhXhX",
"hXhXhXhXhXhXhXhXhXhXhXhXhXZ.q   O [ aXhXhXhXtX1.O O         O   x.hXhXhXhXaXhXhXhXhX}.2     * p.hXhXhXhXhXhXhXhXhXhXhXhXhXhXhXhX",
"hXhXhXhXhXhXhXhXhXhXhXhXhX4XJ     k ;XhXhXhXhX2.    O t t     O v.aX*Xy.$.p.4XhXhXhX}.2     < H.hXhXhXhXhXhXhXhXhXhXhXhXhXhXhXhX",
"hXhXhXhXhXhXhXhXhXaXhXhXhXhX=.    < H.hXhXhXhXQ.B g ` x.8.<   O ! w.~ O   X.6XhXhXhXQ.<     8 /.hXhXhXhXhXhXhXhXhXhXhXhXhXhXhXhX",
"hXhXhXhXhXhXhXhXhXhXhXhXhXhXm.*     2.hXhXhXhXaXOX[.6XhX4Xm   O   *     ` /.hXhXhXhXQ.<     p *XhXhXhXhXhXhXhXhXhXhXhXhXhXhXhXhX",
"hXhXhXhXhXhXhXhXhXhXhXhXhXhXOXt *   ~ aXhXhXhXhXhXhXhXtXB.g O     t I p.1XhXhXhXhXhX}.<     k qXhXhXhXhXhXhXhXhXhXhXhXhXhXhXhXhX",
"hXhXhXhXhXhXhXhXhXhXhXhXhXhXqXk     k 1XhXhXaX4XoX4XZ.~ q   O   k m.aXhXhXhXhXhXhXhXOX8     m hXhXhXhXhXhXhXhXhXhXhXhXhXhXhXhXhX",
"hXhXhXhXhXhXhXhXaXhXaXhXaXhX1Xq O   q L.hXaXoXD g p -     2   * ~ hXhXhXhXhXhXhXhXhXQ.2   O ` hXhXhXhXhXhXhXhXhXhXhXhXhXhXhXhXhX",
"hXhXhXhXhXhXhXhXhXhXhXhXhXhXoXt     - p.hXhXZ.        k | $.-   R hXhXhXhXhXhXhXhXhXE.2     X.hXhXhXhXhXhXhXhXhXhXhXhXhXhXhXhXhX",
"hXhXhXhXhXhXhXhXhXhXhXhXhXhX6X$.O O   =.hXhXoXJ p ! 1.[.tXoXp   B tXhXhXhXhXhXhXhXhXY.<   * 1.hXhXhXhXhXhXhXhXhXhXhXhXhXhXhXhXhX",
"hXhXhXhXhXhXhXhXhXhXhXhXhXhXhX;X! 2   B *XhXhX;X*XqXaXhXhX1Xg   v qXhXhXhXhXhXhXhXhXB.<   * d.hXhXhXhXhXhXhXhXhXhXhXhXhXhXhXhXhX",
"hXhXhXhXhXhXhXhXhXhXhXhXhXhXhXhXOX$.  v [.hXhXhXhXhXhXhXhX4XD * B qXhXhXhXhXhXhXhXhX8.*   * B.hXhXhXhXhXhXhXhXhXhXhXhXhXhXhXhXhX",
"hXhXhXhXhXhXhXhXhXhXhXhXhXhXhXhXhX1Xx.x.qXhXhXhXhXhXhXhXhXhXJ   R aXhXhXhXhXhXhXhX;X~     - E.hXhXhXhXhXhXhXhXhXhXhXhXhXhXhXhXhX",
"hXhXhXhXhXhXhXhXhXhXhXhXhXhXhXhXhXhXhXhXhXhXhXhXhXhXhXhXhXhX~ * X.hXhXhXhXhXhXhXhXL.q   O < oXhXhXhXhXhXhXhXhXhXhXhXhXhXhXhXhXhX",
"hXhXhXhXhXhXhXhXhXhXhXhXhXhXhXhXhXhXhXhXhXhXtXhXhXhXhXhXhXhX!   $.hXhXhXhXhXhXhXhXh.    < 8 ;XhXhXhXhXhXhXhXhXhXhXhXhXhXhXhXhXhX",
"hXhXhXhXhXhXhXhXhXhXhXhXhXhXhXhXhXhXhXhXhXhXhXhXhXhXhXtXhXhX[   h.aXhXaXhXhXhXhXhX/.<     g tXhXhXhXhXhXhXhXhXhXhXhXhXhXhXhXhXhX",
"hXhXhXhXhXhXhXhXhXhXhXhXhXhXhXhXhXhXhXhXhXhXhXhXhXhXhXaXhXhXX.O L.hXhXaXhXhXhXhXhX*Xm O * I qXhXhXhXhXhXhXhXhXhXhXhXhXhXhXhXhXhX",
"hXhXhXhXhXhXhXhXhXhXhXhXhXhXhXhXhXhXhXhXhXhXhXhXhXhXhXaXhXhX$.q OXhXhXhXhXhXhXhXhXhXH.p.x.L.hXhXhXhXhXhXhXhXhXhXhXhXhXhXhXhXhXhX",
"hXhXhXhXhXhXhXhXhXhXhXhXhXhXhXhXhXhXhXhXhXhXhXhXhXhXhXhXhXhX8.J tXhXhXhXhXhXhXhXhXhXhXhXhXhXhXhXhXhXhXhXhXhXhXhXhXhXhXhXhXhXhXhX",
"hXhXhXhXhXhXhXhXhXhXhXhXhXhXhXhXhXhXhXhXhXhXhXhXhXhXhXhXhXhXZ.w.hXhXhXhXhXhXhXhXhXhXhXhXhXhXhXhXhXhXhXhXhXhXhXhXhXhXhXhXhXhXhXhX",
"hXhXhXhXhXhXhXhXhXhXhXhXhXhXhXhXhXhXhXhXhXhXhXhXhXhXhXhXhXhX;XOXhXhXhXhXhXhXhXhXhXhXhXhXhXhXhXhXhXhXhXhXhXhXhXhXhXhXhXhXhXhXhXhX",
"hXhXhXhXhXhXhXhXhXhXhXhXhXhXhXhXhXhXhXhXhXhXhXhXhXhXhXhXhXhXhXhXhXhXhXhXhXhXhXhXhXhXhXhXhXhXhXhXhXhXhXhXhXhXhXhXhXhXhXhXhXhXhXhX",
"hXhXhXhXhXhXhXhXhXhXhXhXhXhXhXhXhXhXhXhXhXhXhXhXhXhXhXhXhXhXhXhXhXhXhXhXhXhXhXhXhXhXhXhXhXhXhXhXhXhXhXhXhXhXhXhXhXhXhXhXhXhXhXhX",
"hXhXhXhXhXhXhXhXhXhXhXhXhXhXhXhXhXhXhXhXhXhXhXhXhXhXhXhXhXhXhXhXhXhXhXhXhXhXhXhXhXhXhXhXhXhXhXhXhXhXhXhXhXhXhXhXhXhXhXhXhXhXhXhX",
"hXhXhXhXhXhXhXhXhXhXhXhXhXhXhXhXhXhXhXhXhXhXhXhXhXhXhXhXhXhXhXhXhXhXhXhXhXhXhXhXhXhXhXhXhXhXhXhXhXhXhXhXhXhXhXhXhXhXhXhXhXhXhXhX",
"hXhXhXhXhXhXhXhXhXhXhXhXhXhXhXhXhXhXhXhXhXhXhXhXhXhXhXhXhXhXhXhXhXhXhXhXhXhXhXhXhXhXhXhXhXhXhXhXhXhXhXhXhXhXhXhXhXhXhXhXhXhXhXhX",
"hXhXhXhXhXhXhXhXhXhXhXhXhXhXhXhXhXhXhXhXhXhXhXhXhXhXhXhXhXhXhXhXhXhXhXhXhXhXhXhXhXhXhXhXhXhXhXhXhXhXhXhXhXhXhXhXhXhXhXhXhXhXhXhX",
"hXhXhXhXhXhXhXhXhXhXhXhXhXhXhXhXhXhXhXhXhXhXhXhXhXhXhXhXhXhXhXhXhXhXhXhXhXhXhXhXhXhXhXhXhXhXhXhXhXhXhXhXhXhXhXhXhXhXhXhXhXhXhXhX",
"hXhXhXhXhXhXhXhXhXhXhXhXhXhXhXhXhXhXhXhXhXhXhXhXhXhXhXhXhXhXhXhXhXhXhXhXhXhXhXhXhXhXhXhXhXhXhXhXhXhXhXhXhXhXhXhXhXhXhXhXhXhXhXhX",
"hXhXhXhXhXhXhXhXhXhXhXhXhXhXhXhXhXhXhXhXhXhXhXhXhXhXhXhXhXhXhXhXhXhXhXhXhXhXhXhXhXhXhXhXhXhXhXhXhXhXhXhXhXhXhXhXhXhXhXhXhXhXhXhX",
"hXhXhXhXhXhXhXhXhXhXhXhXhXhXhXhXhXhXhXhXhXhXhXhXhXhXhXhXhXhXhXhXhXhXhXhXhXhXhXhXhXhXhXhXhXhXhXhXhXhXhXhXhXhXhXhXhXhXhXhXhXhXhXhX"
};
