/* XPM */
static char *_21f09ef870d423fd7222a47c2de58899B5ANlYAIPuTzCqz[] = {
/* columns rows colors chars-per-pixel */
"64 64 211 2 ",
"   c black",
".  c #010101",
"X  c #020202",
"o  c gray1",
"O  c #040404",
"+  c gray2",
"@  c #060606",
"#  c #070707",
"$  c gray3",
"%  c #090909",
"&  c gray4",
"*  c #0B0B0B",
"=  c #0C0C0C",
"-  c #0E0E0E",
";  c gray6",
":  c #101010",
">  c #111111",
",  c gray7",
"<  c #131313",
"1  c #151515",
"2  c #161616",
"3  c #181818",
"4  c #191919",
"5  c #1B1B1B",
"6  c #1E1E1E",
"7  c gray12",
"8  c #202020",
"9  c gray13",
"0  c #222222",
"q  c #232323",
"w  c gray14",
"e  c #252525",
"r  c #272727",
"t  c #282828",
"y  c #2A2A2A",
"u  c gray17",
"i  c #2C2C2C",
"p  c #2D2D2D",
"a  c gray18",
"s  c #2F2F2F",
"d  c gray19",
"f  c #313131",
"g  c gray20",
"h  c #343434",
"j  c #353535",
"k  c gray21",
"l  c #373737",
"z  c gray22",
"x  c #393939",
"c  c gray23",
"v  c #3C3C3C",
"b  c gray24",
"n  c #3E3E3E",
"m  c gray25",
"M  c #414141",
"N  c gray26",
"B  c #434343",
"V  c #444444",
"C  c gray28",
"Z  c #484848",
"A  c #494949",
"S  c gray30",
"D  c #4E4E4E",
"F  c gray31",
"G  c #505050",
"H  c #535353",
"J  c gray33",
"K  c #555555",
"L  c #565656",
"P  c gray34",
"I  c #585858",
"U  c gray35",
"Y  c #5A5A5A",
"T  c gray36",
"R  c gray37",
"E  c #5F5F5F",
"W  c #606060",
"Q  c gray38",
"!  c #626262",
"~  c gray39",
"^  c #646464",
"/  c #656565",
"(  c gray40",
")  c #676767",
"_  c #686868",
"`  c #6A6A6A",
"'  c gray42",
"]  c #6C6C6C",
"[  c gray43",
"{  c #6F6F6F",
"}  c gray44",
"|  c #717171",
" . c #727272",
".. c gray45",
"X. c #747474",
"o. c gray46",
"O. c #777777",
"+. c gray47",
"@. c #797979",
"#. c #7B7B7B",
"$. c #7C7C7C",
"%. c gray50",
"&. c #808080",
"*. c #818181",
"=. c #838383",
"-. c gray52",
";. c gray53",
":. c #898989",
">. c gray54",
",. c #8B8B8B",
"<. c #8D8D8D",
"1. c #8E8E8E",
"2. c gray56",
"3. c #909090",
"4. c gray57",
"5. c #939393",
"6. c gray58",
"7. c #959595",
"8. c gray59",
"9. c #979797",
"0. c #989898",
"q. c gray60",
"w. c #9A9A9A",
"e. c #9B9B9B",
"r. c #9D9D9D",
"t. c #9F9F9F",
"y. c #A0A0A0",
"u. c gray63",
"i. c #A2A2A2",
"p. c gray64",
"a. c gray65",
"s. c #A7A7A7",
"d. c #A9A9A9",
"f. c #AAAAAA",
"g. c gray67",
"h. c #AEAEAE",
"j. c #AFAFAF",
"k. c gray69",
"l. c #B1B1B1",
"z. c #B2B2B2",
"x. c gray70",
"c. c gray71",
"v. c #B6B6B6",
"b. c #B7B7B7",
"n. c gray72",
"m. c gray73",
"M. c #BBBBBB",
"N. c #BCBCBC",
"B. c gray74",
"V. c gray75",
"C. c #C0C0C0",
"Z. c #C1C1C1",
"A. c gray76",
"S. c #C3C3C3",
"D. c gray77",
"F. c #C5C5C5",
"G. c gray78",
"H. c #C8C8C8",
"J. c gray79",
"K. c #CACACA",
"L. c #CBCBCB",
"P. c gray80",
"I. c #CDCDCD",
"U. c #CECECE",
"Y. c gray81",
"T. c #D0D0D0",
"R. c gray82",
"E. c #D2D2D2",
"W. c LightGray",
"Q. c gray83",
"!. c #D5D5D5",
"~. c gray84",
"^. c #D7D7D7",
"/. c #D8D8D8",
"(. c gray85",
"). c #DADADA",
"_. c #DDDDDD",
"`. c gray87",
"'. c #DFDFDF",
"]. c gray88",
"[. c #E1E1E1",
"{. c #E2E2E2",
"}. c gray89",
"|. c #E4E4E4",
" X c gray90",
".X c #E6E6E6",
"XX c #E7E7E7",
"oX c gray91",
"OX c #E9E9E9",
"+X c #EAEAEA",
"@X c gray92",
"#X c #ECECEC",
"$X c gray93",
"%X c #EEEEEE",
"&X c #EFEFEF",
"*X c gray94",
"=X c #F1F1F1",
"-X c gray95",
";X c #F3F3F3",
":X c #F4F4F4",
">X c gray96",
",X c #F6F6F6",
"<X c gray97",
"1X c #F8F8F8",
"2X c #F9F9F9",
"3X c gray98",
"4X c #FBFBFB",
"5X c gray99",
"6X c #FDFDFD",
"7X c #FEFEFE",
"8X c white",
/* pixels */
"8X8X8X8X8X8X8X8X8X8X8X8X8X8X8X8X8X8X8X8X8X8X8X8X8X8X8X8X8X8X8X8X8X8X8X8X8X8X8X8X8X8X8X8X8X8X8X8X8X8X8X8X8X8X8X8X8X8X8X8X8X8X8X8X",
"8X8X8X8X8X8X8X8X8X8X8X8X8X8X8X8X8X8X8X8X8X8X8X8X8X8X8X8X8X8X8X8X8X8X8X8X8X8X8X8X8X8X8X8X8X8X8X8X8X8X8X8X8X8X8X8X8X8X8X8X8X8X8X8X",
"8X8X8X8X8X8X8X8X8X8X8X8X8X8X8X8X8X8X8X8X8X8X8X8X8X8X8X8X8X8X8X8X8X8X8X8X8X8X8X8X8X8X8X8X8X8X8X8X8X8X8X8X8X8X8X8X8X8X8X8X8X8X8X8X",
"8X8X8X8X8X8X8X8X8X8X8X8X8X8X8X8X8X8X8X8X8X8X8X8X8X8X8X8X8X8X8X8X8X8X8X8X8X8X8X8X8X8X8X8X8X8X8X8X8X8X8X8X8X8X8X8X8X8X8X8X8X8X8X8X",
"8X8X8X8X8X8X8X8X8X8X8X8X8X8X8X8X8X8X8X8X8X8X8X8X8X8X8X8X8X8X8X8X8X8X8X8X8X8X8X8X8X8X8X8X8X8X8X8X8X8X8X8X8X8X8X8X8X8X8X8X8X8X8X8X",
"8X8X8X8X8X8X8X8X8X8X8X8X8X8X8X8X8X8X8X8X8X8X8X8X8X8X8X8X8X8X8X8X8X8X8X8X8X8X8X8X8X8X8X8X8X8X8X8X8X8X8X8X8X8X8X8X8X8X8X8X8X8X8X8X",
"8X8X8X8X8X8X8X8X8X8X8X8X8X8X8X8X8X8X8X8X8X8X8X8X8X8X8X8X8X8X8X8X8X8X8X8X8X8X8X8X8X8X8X8X8X8X8X8X8X8X8X8X8X8X8X8X8X8X8X8X8X8X8X8X",
"8X8X8X8X8X8X8X8X8X8X8X8X8X8X8X8X8X8X8X8X8X8X8X8X8X8X8X8X8X8X8X8X8X8X8X8X8X8X8X8X8X8X8X8X8X8X8X8X8X8X8X8X8X8X8X8X8X8X8X8X8X8X8X8X",
"8X8X8X8X8X8X8X8X8X8X8X8X8X8X8X8X8X8X8X8X8X8X8X8X8X8X8X8X8X3X8X8X8X8X8X8X8X8X8X8X8X8X8X8X8X8X8X3X8X8X8X8X8X8X8X8X8X8X8X8X8X8X8X8X",
"8X8X8X8X8X8X8X8X8X8X8X8X8X8X8X8X8X8X8X8X8X8X8X8X8X8X8X8X8X8X8X8X8X8X8X8X8X8X8X8X8X8X8X8X8X8X8X8X8X8X8X8X8X8X8X8X8X8X8X8X8X8X8X8X",
"8X8X8X8X8X8X8X8X8X8X8X8X8X8X8X8X8X8X8X8X8X8X8X8X8X8X8X8X8X8X8X8X8X8X8X8X8X8X8X8X3X8X8X8X8X8X8X8X8X8X8X8X8X8X8X8X8X8X8X8X8X8X8X8X",
"8X8X8X8X8X8X8X8X8X8X8X8X8X8X8X8X8X8X8X8X8X8X8X8X8X8X8X8X8X8X8X8X8X8X8X3X3X8X8X8X8X8X8X8X8X8X8X8X8X8X8X8X8X8X8X8X8X8X8X8X8X8X8X8X",
"8X8X8X8X8X8X8X8X8X8X8X8X8X8X8X8X8X8X8X8X8X8X8X8X8X8X8X8X8X8X3X8X8X8X8X8X8X8X8X8X8X8X8X8X8X3X8X8X8X8X8X8X8X8X8X8X8X8X8X8X8X8X8X8X",
"8X8X8X8X8X8X8X8X8X8X8X8X8X8X8X8X8X8X8X8X8X8X8X8X8X8X8X8X8X8X8X8X8X-XQ.P.].<X8X8X8X8X3X8X8X8X8X8X8X8X8X8X8X8X8X8X8X8X8X8X8X8X8X8X",
"8X8X8X8X8X8X8X8X8X8X8X8X8X8X8X8X8X8X8X8X8X8X8X8X8X8X8X8X8X8X8X3XA.#.g 7 g H *.a.].8X8X8X8X8X8X8X8X8X8X8X8X8X8X8X8X8X8X8X8X8X8X8X",
"8X8X8X8X8X8X8X8X8X8X8X8X8X8X8X8X8X8X8X8X8X8X8X8X8X8X8X8X3X].m.q.a #     #     * I ).8X8X8X8X8X8X8X8X8X8X8X8X8X8X8X8X8X8X8X8X8X8X",
"8X8X8X8X8X8X8X8X8X8X8X8X8X8X8X8X3X8X8X8X8X8X8X-X|.K.q...B 4 ,     #     #     # e P.8X3X8X8X8X8X8X8X8X8X8X8X8X8X8X8X8X8X8X8X8X8X",
"8X8X8X8X8X8X8X8X8X8X8X8X8X8X8X8X8X8X%XA.y.4.{ C 4 , # # #               4 k I ;.A.8X8X8X8X8X8X8X8X8X8X8X8X8X8X8X8X8X8X8X8X8X8X8X",
"8X8X8X8X8X8X8X8X8X8X8X8X8X8X8X8X8X3XN.K *       #           = = 8 B { 8.N.|.3X8X8X8X8X8X8X8X8X8X8X8X8X8X8X8X8X8X8X8X8X8X8X8X8X8X",
"8X8X8X8X8X8X8X8X8X8X8X8X8X8X8X8X8X8X8XA...k 1       , 8 k ! ;.r.Q.%X8X8X8X8X8X8X8X8X8X8X8X3X8X8X8X8X8X8X8X8X8X8X8X8X8X8X8X8X8X8X",
"8X8X8X8X8X8X8X8X8X8X8X8X8X8X8X8X3X8X8X8X8X@XN.y.>.1.N.Q.`.<X8X8Xl.D.8X8X8X<X8X8X8X8X8X8X8X8X8X8X8X8X8X8X8X8X8X8X8X8X8X8X8X8X8X8X",
"8X8X8X8X8X8X8X8X8X8X8X8X8X8X8X8X8X8X8X<X8X8X8X8XP.l.@X8X8X8X<X`.a e ;.8X8X8X8X8X8X8X8X8X8X8X8X8X8X8X8X8X8X8X8X8X8X8X8X8X8X8X8X8X",
"8X8X8X8X8X8X8X8X8X8X8X8X8X8X8X8X3X8X8X8X8X8X8X3X*.8 k ..v.8X8X8X`   g K.8X8X8X8X8X8X8X8X8X8X8X8X8X8X8X8X8X8X8X8X8X8X8X8X8X8X8X8X",
"8X8X8X8X8X8X8X8X8X8X8X8X8X8X8X8X8X8X8X8X8X8X8X8X-Xk     K R.8X8X1.  = v.8X8X8X8X8X8X8X8X8X8X8X8X8X8X8X8X8X8X8X8X8X8X8X8X8X8X8X8X",
"8X8X8X8X8X8X8X8X8X8X8X8X8X8X8X8X8X8X8X8X8X8X8X8X8Xo.      r.8X8X>.    q.8X8X8X8X8X8X8X8X8X8X8X8X8X8X8X8X8X8X8X3X8X8X8X8X8X8X8X8X",
"8X8X8X8X8X8X8X8X8X8X8X8X8X8X8X8X8X8X8X8X8X3X3X8X8Xg.*     ..8X8X;.#   %.<X8X8X<X<X|.P.l.4.q.K.%X8X8X8X8X8X8X8X8X8X8X8X8X8X8X8X8X",
"8X8X8X8X8X8X8X8X8X8X8X8X8X8X8X8X8X8X8X8X8X8X8X8X8XP.#   * ! 8X<XI *   k { ( F k a t 8 , #   e H 4.K.%X8X8X8X3X8X8X8X8X8X8X8X8X8X",
"8X8X8X8X8X8X8X8X8X8X8X8X8X8X8X8X8X3X8X8X8X8X8X8X8XQ.4     7 o.K 4 #         * * = , #             x ..g.<X8X8X8X8X8X8X8X8X8X8X8X",
"8X8X8X8X8X8X8X8X8X8X8X8X8X8X8X8X8X8X8X3X<X8X8X@Xl...1                 # a T y.A.K.K...,   , * #       8 8.8X8X8X8X8X8X8X8X8X8X8X",
"8X8X8X8X8X8X8X8X8X8X8X8X8X8X8X8X8X8X3X8X8X8XK.T 8       = #   # *   # F m.%X8X8X8X8Xa.=         ,     * { @X8X8X8X8X8X8X8X8X8X8X",
"8X8X8X8X8X8X8X8X8X8X8X8X8X8X8X8X8X8X8X8X).K.R.R.` t *       8 x K     { 8X8X8X8X<X8Xg.4   *       # T >.v.8X8X8X8X8X8X8X8X8X8X8X",
"8X8X8X8X8X8X8X8X8X8X8X8X8X8X8X8X8X8X<XA.a.Q.8X8X8Xg.t   # k D.@X).v   I -X8X3X8X8X8X8.#   #       g R.8X8X8X8X8X8X8X8X8X8X8X8X8X",
"8X8X8X8X8X8X8X8X8X8X-Xv.y.Q.<X|.].R...#.|.8X8X8X8X8X`     #.3X8X8X;.  1 l.8X8X8X8X8Xq.*   #       y.8X8X8X8X8X8X8X8X8X8X8X8X8X8X",
"8X8X8X8X8X8X8X8X8X8X-Xq.a   8 A t t = #.8X8X3X8X8X8X..    4.8X8X8Xm.a   t { v.3X8X8X*.          k Q.8X8X8X8X8X8X8X8X8X8X8X8X8X8X",
"8X8X8X8X8X8X8X8X8X8X8X-X4.g           I |.8X8X8X8X8X..  8 A.8X8X8X8Xl.F 1   * B N.8X(       # # 1.8X8X8X8X8X8X8X8X8X8X8X8X8X8X8X",
"8X8X8X8X8X8X8X8X8X8X8X8X8XA.!     =   * ( ].8X8X8X8X(   ! -X8X8X3X8X8X@XN.#.v a y.<XI         8 ).8X8X8X8X8X8X8X8X8X8X8X8X8X8X8X",
"8X8X8X8X8X8X8X8X8X8X8X8X8X8X).4.*   #   * 8.8X8X8X8X! = g.8X8X8X8X8X8X8X8X8X%X`.<X].A         { 8X8X3X8X8X8X8X8X8X8X8X8X8X8X8X8X",
"8X8X8X8X8X8X8X8X8X8X8X8X8X8X8X<XT     *   v A.8X8X8X*.F |.8X3X8X8X8X3X3X8X8X8X8X3X;.,   *   * m.8X8X8X8X8X8X8X8X8X8X8X8X8X8X8X8X",
"8X8X8X8X8X8X8X8X8X8X8X8X8X8X8X8XA.t         ( 8X8X8XA.g.8X8X8X8X8X8X8X8X8X8X8X8XP.x     #   v @X8X8X8X8X8X8X8X8X8X8X8X8X8X8X8X8X",
"8X8X8X8X8X8X8X8X8X8X8X8X8X8X8X8X8X..*   *   7 N.8X8X<X-X8X8X8X8X8X8X8X8X8X8X8X8X8XT * #     o.8X8X8X8X8X8X8X8X8X8X8X8X8X8X8X8X8X",
"8X8X8X8X8X8X8X8X8X8X8X8X8X8X8X8X8XQ.K     # , B |.8X8X8X8X8X8X8X8X8X8X8X8X8X8X3X-X>.,     , l.8X8X8X8X8X8X8X8X8X8X8X8X8X8X8X8X8X",
"8X8X8X8X8X8X8X8X8X8X8X8X8X8X8X8X8X8Xg.B #     4 N.|.8X8X8X8X-X%X`.Q.D.l.8.#.T F a =   * = x K.8X8X8X8X8X8X8X8X8X8X8X8X8X8X8X8X8X",
"8X8X8X8X8X8X8X8X8X8X8X8X8X8X8X8X8X8X8XA...k *   e C K ! ` ! F B t 8 ,           # a K 1.q.l.8X8X8X8X8X8X8X8X8X8X8X8X8X8X8X8X8X8X",
"8X8X8X8X8X8X8X8X8X8X8X8X8X8X8X8X8X8X8X8X-XP.#.,         # #             = t A ! y.P.%X8X8X8X8X8X8X8X8X8X8X8X8X8X8X8X8X8X8X8X8X8X",
"8X8X8X8X8X8X8X8X8X8X8X8X8X8X8X8X8X3X8X8X8X8X|.1.t 7 *   = 1 8 t B K ..8.v.Q.<X8X8X8X8X8X8X8X8X3X8X8X8X8X8X8X8X8X8X8X8X8X8X8X8X8X",
"8X8X8X8X8X8X8X8X8X8X8X8X8X8X8X8X8X8X8X8X8X8X8X-X].R.D.D.P.Q.].@X<X3X8X8X8X8X8X8X8X8X8X8X8X8X8X8X8X8X8X8X8X8X8X8X8X8X8X8X8X8X8X8X",
"8X8X8X8X8X8X8X8X8X8X8X8X8X8X8X8X3X8X8X8X8X8X8X8X8X8X8X8X8X8X8X8X8X8X8X8X8X8X8X3X8X8X8X8X8X8X8X8X8X8X8X8X8X8X8X8X8X8X8X8X8X8X8X8X",
"8X8X8X8X8X8X8X8X8X8X8X8X8X8X8X8X8X8X8X8X8X8X3X8X8X8X8X8X8X8X8X8X8X8X8X8X8X8X8X8X8X8X8X8X8X8X3X8X8X8X8X8X8X8X8X8X8X8X8X8X8X8X8X8X",
"8X8X8X8X8X8X8X8X8X8X8X8X8X8X8X8X8X8X8X8X8X8X8X8X8X8X8X8X8X8X8X8X8X8X8X8X8X8X8X8X8X8X8X8X8X8X8X8X8X8X8X8X8X8X8X8X8X8X8X8X8X8X8X8X",
"8X8X8X8X8X8X8X8X8X8X8X8X8X8X8X8X8X8X8X8X8X8X8X8X8X8X8X8X8X8X8X8X8X8X8X8X8X8X8X8X8X8X8X8X8X8X8X8X8X8X8X8X8X8X8X8X8X8X8X8X8X8X8X8X",
"8X8X8X8X8X8X8X8X8X8X8X8X8X8X8X8X8X8X8X8X8X8X8X8X8X8X8X8X8X8X8X8X8X8X8X8X8X8X8X8X8X8X8X8X8X8X8X8X8X8X8X8X8X8X8X8X8X8X8X8X8X8X8X8X",
"8X8X8X8X8X8X8X8X8X8X8X8X8X8X8X8X8X8X8X8X8X8X8X8X8X8X8X8X8X8X8X8X8X8X8X8X8X8X8X8X8X8X8X8X8X8X8X8X8X8X8X8X8X8X8X8X8X8X8X8X8X8X8X8X",
"8X8X8X8X8X8X8X8X8X8X8X8X8X8X8X8X8X8X8X8X8X8X8X8X8X8X8X8X8X8X8X8X8X8X8X8X8X8X8X8X8X8X8X8X8X8X8X8X8X8X8X8X8X8X8X8X8X8X8X8X8X8X8X8X",
"8X8X8X8X8X8X8X8X8X8X8X8X8X8X8X8X8X8X8X8X8X8X8X8X8X8X8X8X8X8X8X8X8X8X8X8X8X8X8X8X8X8X8X8X8X8X8X8X8X8X8X8X8X8X8X8X8X8X8X8X8X8X8X8X",
"8X8X8X8X8X8X8X8X8X8X8X8X8X8X8X8X8X8X8X8X8X8X8X8X8X8X8X8X8X8X8X8X8X8X8X8X8X8X8X8X8X8X8X8X8X8X8X8X8X8X8X8X8X8X8X8X8X8X8X8X8X8X8X8X",
"8X8X8X8X8X8X8X8X8X8X8X8X8X8X8X8X8X8X8X8X8X8X8X8X8X8X8X8X8X8X8X8X8X8X8X8X8X8X8X8X8X8X8X8X8X8X8X8X8X8X8X8X8X8X8X8X8X8X8X8X8X8X8X8X",
"8X8X8X8X8X8X8X8X8X8X8X8X8X8X8X8X8X8X8X8X8X8X8X8X8X8X8X8X8X8X8X8X8X8X8X8X8X8X8X8X8X8X8X8X8X8X8X8X8X8X8X8X8X8X8X8X8X8X8X8X8X8X8X8X",
"8X8X8X8X8X8X8X8X8X8X8X8X8X8X8X8X8X8X8X8X8X8X8X8X8X8X8X8X8X8X8X8X8X8X8X8X8X8X8X8X8X8X8X8X8X8X8X8X8X8X8X8X8X8X8X8X8X8X8X8X8X8X8X8X",
"8X8X8X8X8X8X8X8X8X8X8X8X8X8X8X8X8X8X8X8X8X8X8X8X8X8X8X8X8X8X8X8X8X8X8X8X8X8X8X8X8X8X8X8X8X8X8X8X8X8X8X8X8X8X8X8X8X8X8X8X8X8X8X8X",
"8X8X8X8X8X8X8X8X8X8X8X8X8X8X8X8X8X8X8X8X8X8X8X8X8X8X8X8X8X8X8X8X8X8X8X8X8X8X8X8X8X8X8X8X8X8X8X8X8X8X8X8X8X8X8X8X8X8X8X8X8X8X8X8X",
"8X8X8X8X8X8X8X8X8X8X8X8X8X8X8X8X8X8X8X8X8X8X8X8X8X8X8X8X8X8X8X8X8X8X8X8X8X8X8X8X8X8X8X8X8X8X8X8X8X8X8X8X8X8X8X8X8X8X8X8X8X8X8X8X",
"8X8X8X8X8X8X8X8X8X8X8X8X8X8X8X8X8X8X8X8X8X8X8X8X8X8X8X8X8X8X8X8X8X8X8X8X8X8X8X8X8X8X8X8X8X8X8X8X8X8X8X8X8X8X8X8X8X8X8X8X8X8X8X8X",
"8X8X8X8X8X8X8X8X8X8X8X8X8X8X8X8X8X8X8X8X8X8X8X8X8X8X8X8X8X8X8X8X8X8X8X8X8X8X8X8X8X8X8X8X8X8X8X8X8X8X8X8X8X8X8X8X8X8X8X8X8X8X8X8X",
"8X8X8X8X8X8X8X8X8X8X8X8X8X8X8X8X8X8X8X8X8X8X8X8X8X8X8X8X8X8X8X8X8X8X8X8X8X8X8X8X8X8X8X8X8X8X8X8X8X8X8X8X8X8X8X8X8X8X8X8X8X8X8X8X"
};
